<mxfile host="Electron" modified="2023-11-28T07:37:56.177Z" agent="Mozilla/5.0 (Macintosh; Intel Mac OS X 10_15_7) AppleWebKit/537.36 (KHTML, like Gecko) draw.io/22.1.2 Chrome/114.0.5735.289 Electron/25.9.4 Safari/537.36" etag="uyfPHfBKk6DmcqfZUGfF" version="22.1.2" type="device">
  <diagram name="Page-1" id="CFuWIAyOkxlYAMA5g71N">
    <mxGraphModel dx="675" dy="605" grid="1" gridSize="10" guides="1" tooltips="1" connect="1" arrows="1" fold="1" page="1" pageScale="1" pageWidth="827" pageHeight="1169" math="0" shadow="0">
      <root>
        <mxCell id="0" />
        <mxCell id="1" parent="0" />
        <mxCell id="0IcsC1O1_N2VIoIIlEwo-1" value="IP" style="rounded=1;whiteSpace=wrap;html=1;" vertex="1" parent="1">
          <mxGeometry x="290" y="120" width="200" height="60" as="geometry" />
        </mxCell>
        <mxCell id="0IcsC1O1_N2VIoIIlEwo-2" value="TCP" style="rounded=1;whiteSpace=wrap;html=1;" vertex="1" parent="1">
          <mxGeometry x="290" y="200" width="200" height="60" as="geometry" />
        </mxCell>
        <mxCell id="0IcsC1O1_N2VIoIIlEwo-3" value="Application data" style="rounded=1;whiteSpace=wrap;html=1;" vertex="1" parent="1">
          <mxGeometry x="290" y="280" width="200" height="60" as="geometry" />
        </mxCell>
        <mxCell id="0IcsC1O1_N2VIoIIlEwo-4" value="" style="verticalLabelPosition=bottom;verticalAlign=top;html=1;shape=mxgraph.basic.star" vertex="1" parent="1">
          <mxGeometry x="300" y="135" width="31.58" height="30" as="geometry" />
        </mxCell>
        <mxCell id="0IcsC1O1_N2VIoIIlEwo-5" value="" style="shape=sortShape;perimeter=rhombusPerimeter;whiteSpace=wrap;html=1;" vertex="1" parent="1">
          <mxGeometry x="300" y="210" width="40" height="40" as="geometry" />
        </mxCell>
        <mxCell id="0IcsC1O1_N2VIoIIlEwo-7" value="" style="verticalLabelPosition=bottom;verticalAlign=top;html=1;shape=mxgraph.basic.pie;startAngle=0.2;endAngle=0.9;" vertex="1" parent="1">
          <mxGeometry x="300" y="290" width="40" height="40" as="geometry" />
        </mxCell>
        <mxCell id="0IcsC1O1_N2VIoIIlEwo-10" value="" style="shape=image;verticalLabelPosition=bottom;labelBackgroundColor=default;verticalAlign=top;aspect=fixed;imageAspect=0;image=data:image/png,iVBORw0KGgoAAAANSUhEUgAAATQAAAEECAYAAACm+8gyAAAAAXNSR0IArs4c6QAAADhlWElmTU0AKgAAAAgAAYdpAAQAAAABAAAAGgAAAAAAAqACAAQAAAABAAABNKADAAQAAAABAAABBAAAAAD7WBL7AABAAElEQVR4Ae29CXRdV5XnvTXP8mzHjp3YmWfISObBGagMkCIMSUOABKqbkNBMDUXRtZqvm1pVBaspwgdfgIZKCBRjQyCECpUQQpxAQiYyQ2JnsDN4jC1ZsmbpSd/+7fv205UsS5b0pGc97611de+7wzn3/u87/7enc07JgIqEBAKBQCBQBAiUFsEzxCMEAoFAIGAIBKHFFyEQCASKBoEgtKJ5lfEggUAgEIQW34FAIBAoGgSC0IrmVcaDBAKBQBBafAcCgUCgaBAIQiuaVxkPEggEAkFo8R0IBAKBokEgCK1oXmU8SCAQCAShxXcgEAgEigaBILSieZXxIIFAIBCEFt+BQCAQKBoEgtCK5lXGgwQCgUAQWnwHAoFAoGgQCEIrmlcZDxIIBAJBaPEdCAQCgaJBIAitaF5lPEggEAgEocV3IBAIBIoGgSC0onmV8SCBQCAQhBbfgUAgECgaBILQiuZVxoMEAoFAEFp8BwKBQKBoEAhCK5pXGQ8SCAQCQWjxHQgEAoGiQSAIrWheZTxIIBAIBKHFdyAQCASKBoEgtKJ5lfEggUAgEIQW34FAIBAoGgSC0IrmVcaDBAKBQBBafAcCgUCgaBAIQiuaVxkPEggEAkFo8R0IBAKBokEgCK1oXmU8SCAQCAShxXcgEAgEigaBILSieZXxIIFAIBCEFt+BQCAQKBoEgtCK5lXGgwQCgUAQWnwHAoFAoGgQCEIrmlcZDxIIBAJBaPEdCAQCgaJBIAitaF5lPEggEAgEocV3IBAIBIoGgSC0onmV8SCBQCAQhBbfgUAgECgaBILQiuZVxoMEAoFAEFp8BwKBQKBoEAhCK5pXGQ8SCAQCQWjxHQgEAoGiQSAIrWheZTxIIBAIBKHFdyAQCASKBoEgtKJ5lfEggUAgEIQW34FAIBAoGgSC0IrmVcaDBAKBQBBafAcCgUCgaBAIQiuaVxkPEggEAkFo8R0IBAKBokEgCK1oXmU8SCAQCAShxXdgj0NgYGBgj7unuKGZgUAQ2sx4T3vdXUJqQWx73Wuf9AOXT7qEKGCvQ2A6iYa6SkpK9jqM44EnhkBoaBPDLa6aRgSmk0Cn8bGiqilAIAhtCkCNIvOPQJBa/jEtxhLD5CzGtzrGM7kZNyD9op4qKdG/0cTPKZFS6e/vz51aWpL6PcSPnxHp68tId6ZHykpLpae3Vxob63Pns9GfGZDSUq0vVWVra5tUVlRIeXnydSwrK8tdY9Ym52r5dh9Z89PuozQJHox1/14Y9x9S3AiU6Jc7QkrF/Y53ejp/5QMl/TuRWf+A7kv5rJwshpMBhNLT1Svd3d0ya1ajtHd0SvPrTdLc3CxtXe3S0d4uW7dtky2bN0tLa6ue22UEZ0Sk5UNg1TU1MnvWLJk7b57M12XW7NlSX1cnc2fNlYaGBqmfXSdtbR1SoURXqgRZojwH6WUyGYH0IGTECZd7H0Kyw558+DMMOxwfiwCB0NCK4CWO9xFcQyuVQU2IMiAba/T6EweBOPFZ+aol8XlHa7uR0Y62Ntm8aZO8+OKLsu7FdfLKK6/IZiWvzs5OW0M6kN08Jape1dQgSStf15TtAjFt375dKisrpaqqyghr7ty5dt3y5cvl0EMPlRUHrZAl++6r++ZIa0ubkR4aW4lqiJRZWpp9jv4B6c30WRnUlyZm6jMy1XW6fr+PWBcHAqGhFcd7HNdTOKHt6iJv+H68TcmrtrpONmzcKOvWrZM777hDNqxfL+teftnIaN7shLQgLogMckLSJMZn6nWSTN+Db3M+BAfhcA8QHBpfaUWpLF26VI4++mg55JBD5OxzzpHF++wjnd0dVhfXcK1rbtTl4mX751gXNwJBaMX9fkd8unQjZxvxfabV6K729k6pUmJ6WQnsDw88IA/+8Y/y0ksvyfZt26W+vt60rr6+PvWZ9RmZQCqV5ZVGRj19PUYulAU5sWaBpFh7nb7fP7O27aybrq+/zwgOM7NCTVSIEm0OojviiCPkxJNPlMMOP9yIrlr3lVckmhqmJ+W4JkY9LuxPf/b9sS4OBILQiuM9TugphjduNCwzDwdK5Q9/+IP87ne/k+eff162bNliTv7uzh4jMIiFa9OanJFElojKK8vtOOd4HX4uJAMJ8tm1MW7eyY11pjeTEFJ5QoaUgaCB+XUQXF9/ryxSTe0Y1dyOPf54OfbYY80nV1NXbQRoFw375/czbHd8LBIEgtCK5EWO6zHgh4Qj7DL4YltTk2pl7bJRzcpv/n/fkNdff90IhH0QCQIZQXgejSzVqKETUZooOJ+FY64lcRwy4jPXO8FxDsdYEPZzHLLzcnxfSVmiafl+P3+WBhYguMNVW0Nzu/jSS2SOBhgoo7xcgwdadC4gSzWDLjyKCCkiBILQiuhl7vajJNyRI7Wm5u3yxOOPy6233ir333+/zGmcIz09PebUh3AgBicnCM1JqmRgkIwgnQF1ypdoSkZ1dbURk+1TNuHa9Db3CYFRjpfF2s8zLVGv4TPnseYeBkrU6a/1Y3Jyf5AYxyA4J1q0vwMOPkDe8pa3yIUXXSQNah5Dark0kSC03f6azMQTg9Bm4lsb5z0TbYQEBlTRMk1FG3XrjiT3C9Pypz/+qTz77LNmCkIsvZqOUaYk4GQDcUAaEArE4uTEcfbzmW3Ih+Psg2jQtDBPm1T7c1L04zwC1xEFhZwgIkjJCYx1WiifMhEnsTLN4/DzWPv9cp/US9nveMc75K8u/it9nnKNjtbq+eTKJX6/8sqhUV7K9vrZDpl5CAShzbx3tlt3PLxhGqlVVCmJDJh5+aqmWdx5551yzz33yI7tO6xMNCvSLtC8IB4IAtJh2/xemvcFSVEWwn4EsiQSSrpFY2OjzFZzjzwyCGX+/PmapzbLtDbO5b6cBLs0N61Vc9R8IaLZ0dEhr776qp1H8AGyg+ion4Xrqc/uK0VoTlIcr6iqyGlw1HnK6afIpZdeasEDrjWTVv1zauha2TyHPwvnh8xcBILQZu67G/XOIQE0Kxo4glbT1dEtGSWo7333u7Jq1SrZsnGL+c3qNJnVNDDL4k9IjOuIMjqBsHYiQvup0aRY9ZTJkiVL5IAVK+RQ9V/tv//+gwSmxME5lUounR1dRiI5zSpLltxjVXWlZPr6VWPcYaQIobZoJJOUkGeeekpWr1kjW7dulR60zIpqu1/uJaeNpbYhYoiO45AWPjdIs7a2VnjGCy68QC655BK7T+6ltHww+smzBamN+pWaEQeD0GbEa5rYTXojpZGj/ezQpNR//ud/lmeeflpNT/VfaTSThg+xIDj52aZhG2moFuMEAYlxDJI65phjLB/s+DedIAcfdJBpY2hWHCsrI4qZkINZiIOckXsIuj+5DOkGpbvRINEAuff6hjojw5eV3B5TH98fNX3kxTUvyiZN6EUD9HvjXtkmbcSfmTWE7OYyx+cuSBJ23/e+98n5F5xnGhqaHeSY1kb93mI98xAIQpt572zMO+7u7bIGWlFWaSYkWsq9994rX9foJaSEjwzTi0bPMXoQmUaD1oKZqX9OEpih5VXlst9++8npZ5whZ+pywAErjLRIm+D4cIE8ENei2GYfC+W65shnNCU/30hU6x+uKUE69FCgW1Sn3u/v77tP7r77bnlcSY6yulXzhAQpC0FTYz/Cfic2jlN2TX2N+dYufdtbh5jDJOpWV1UnvSXs6vg30xAIQptpb2w37renr9tIAkJDm/npT38qt9xyi/W9hLgG+hINicaOVlVTVWPE59oNBICJhlZ2yimnyDnnr5Q3vOEN1qeypjZFYMofkBDXmQmnZMQavxdrJ8nduOUhpzjRsZNyXKiLwAb+OgiLQMavfvUreeiBh+w+SDGBsNHUWPs9lGY1TZ7X/H2dbebfO1E1zKuvvtrMZnBQJpQ+7ToFbiEzE4EgtJn53ka968xAn2leLz7/knxX/WVr1A+FyUliLCSFqYmgyTgZoblketTpr+vG+Y1y1llnyTnnnSMrDjhAtZYqu47O4ZAExALplClRpGVXncMz/YN5bHad9r1Md4L3DvDpsnyb85ASvefhGl+mNwlSQGy/vO02eeSPD1vgoGlzsyYCayBDehNiV/Lj+SBqnrdbCR/CrlVNbeHChfLhD39YjjzySKlrqLXO7aqnevWxnmEIBKHNsBe2O7fb1rHDtJdv3PBN6zS+Qx3uaEv9qpmVKiHRKR1y6O5MopVOUovmL5J9Fi2S//bZT8myZcusDyVOewS/F4QGIZiWp6SGRsPfcEJKdz0afszP97U/D5+R4ef78eRYQjRuojKyBnznOWnPPPmMmaK3/OTndhmjiSA8K8/Ym0mSgvt1P2VgMhNJJTr7wQ9+UM48+wypq60Lk9NQm5n/gtD2wPfWr9HDkRo2VIR2hGZloisihJiQ5VVJCkV3R488+vCj8pWvfEU2bNhgppf7pKpqquwya8zql3JiWLR4ocxfsEDe9a53yfEnnKDD+czOmXoQwbgl4SbYaURR/S633zU1nlcz2mx/mT6f12vPm70H5aAhWlqWA5OytE44FvnTn/4kP/jBD+SP2v8UqVQTkvL8udnH5ypNY8E0hfAgtmuuuUZOPvlkmbNklml01J0ejig0N5DbsyUIbQ98P2MSWpYpbLBEugNlG3NLU4s8pakOX/inL0hLS4s1WjQqCI1Giy+Jhuw+LhosPqXL3325ZdXP0hyyWbMbtThnpKThjxsiv3wXhIZmhEmIpAnN68ko2SJuDmMmJzLMFPR6skd91dzcYs/8i1/8Qm775S+lXQMKaKkQGs8PHixoqI4NgYcFSuof+MAH5NxLzjFNDRzYX1GeBBiC0BzhPXcdhLYHvpvhhJZuSKaxKKH1aQdu69KTvf+OHZ3y4IMPyre//W3ZtGGTNV60D8xDXEK+zfU0UhJgMStJYSDxlHyx3p5sCkMqPwsCyLf4PaSDBpCsE+xARolHCRgZgISy27n7gMNTZLbTLaoml9Eytiupb1Qt9avXf1XW63BHkDzPPkiQYsEQNDWes6uzSwl9llz3yWvltNNOM4JLP7//OOTuIzb2OATK/qfKHndXe/kNDfcvDTc/+YzGpTaakRVk9swzz8j1119vI2OUl5VbUADCoBHilEcTc1IjQni8jk7xiU98wjp0V9VmNSAlCRqwd+RON+Z8vRIjZK0DzYiUkYoy1X6UoLo0YFFVqT0ASO7VXLZ+7lsXxJ5V12huLKV6LeKk5us0sZHfVltbo0udnHTiSUZczz33nNULDmDAGlMzo3lz1EGkE03umWeftigoY7B5WgoRUu55KjCxh4l/eUEgNLS8wJjfQsbS0My5n9VayCmjq9CnPvUpad6mkUxteDQ6GmlFddJo0UhojBAE2+95z3vk8ssv1+QzbfSkK6g4iSUf7P+E/7mPLK1ZWmHuOlMC27z5dblP88n+rI78qtoqmT9nviXr0l1q2bJ9jWhcmyrxaKori9k15IgMuhSTAxqrsGABx0uzJnlbe4f85td3yg9/+EMhUReCBxPMUCfXupo6I9lMeZ8R2mc/+1l54xvfaOdSFiQYhGaQ77H/gtD2wFczFqGRi4WoR0y2bW2ytINtOn5/a3Or1NXX5RopCbIIJEf3H3xEF154obzzne/U82q1MyZaz2D6BSZnhY5lhsY0GRmJ0Ix8+pOCN+lQ3d+98WYb2YN+nJAE/izMYLZnz51taRRokfvtt9S6KhkBVSa+rMQXOHiHKevTdlpwM/sMZppnB35s2tJsQ4YTMGGwSrQy7gviJI1jQLVDtruly0hs+fLlct1111kOHvghYXYaDHvsvzA598BX4yYnGs4QcxOT0HLH0CpKVSPbLmgRWzZt0Uz6Hblhe8i3IkHUGytm1YoVK+Rtb3ubnHnmmdI4p1HKdFhryAwCYcgfhDJNsmSQfJjIf6cY1rrkPiY5bJvXb5JvfetbliDb2625YvjMlOwgVMi6pXW7jpT7sty76l555OFH5NXX1ms5SnRKeB1t7dr/s9o0MNJGhmpMEPhgGgkpHblcOb2HiqpKWbBwgSxdstS0NMgUjCA2CxgoDgQpGJmjr7dP2nVEkrUvrZMT1WRtbEjI1rRjx2ki0MQ1U4pAENqUwjuxwgcJbWRmSfo79si/fvtfBb9Q07YmM4dolN4w8Z/haEfzwIwjJYFs/yXLFucaOX4myrL+lE46VDlyteN4GC/ML8kWmLUN7//9/XLXXXcJw/9AJpWlahKXamdyq1ivzQYxICv6iK7fsF5u08TZxx9/zEzCwzUJ1iRLaIOkBnIQWkLMenlCfFokuDBENxOqLJy/0Mzb1atX20gf7lPjHMxPykDw8bGPzvHHKHb4JvOhwVrh8W9KEAhCmxJYJ1coDdIGS9QWaQRFy1TpUrNMFQob7ueuO++yLk30AKD9QQzuRK+uSYYBYh9D93zuc5+zoXPmLJidkFXSXm3byIzi04vVNpl/SQVODK5lsoZ8WjStgmGLuG8jESW2jGqUZiLrPkxK7p0FDaq3L+nG1NTULA+rxnb7r29X7bLPsvy5Huc/tw9maJ3sQ7ge3yDw8ZyYn9Rfqb5FoplvOOYNlqvGCB+QP2TGca1Zk5D7te9ovbSplrataZuZ7Sdojh55aR5EsEqtpuQ52Bwk1+yBWE0rAkFo0wr37ldGo6RB+pqGXVGh/TC10a59aa3ceOONNl0cDZE8KY7TmDgfExIHNhnwn/zkJ21Y6obZ9UaGNO6c+Lavcwcmu5EQWprIKNE/z5szz4b4XvP8GusMnsHOVJOTZ4BUmGSFbRZ/Hq7nGJhgTpM8+/hjf9JnLZX9teM8RMOglGW6hkg5D4JnbQJRqqkIRqR0kKaChkgi7QM6igc4IsnxhPioD7Lr7uk2Tc5TXcCW9wChOYGx9ndgBcW/giAQhFYQ2EevlIbhDdEIDTVDGzxk1Ly9Rf7f679iXZvwP0FmTno4tG2Qxq5OG5eMHDN8ZrPmNWYbn9abcE1yA7T1vJMZRTuh4QPMEopVlVQG4R5x+BFmCldVa+8F3d26o8U0s0ZN7NW+DzopsXZw1/MgKcSfkTXpHd1dPdKsI+E+++e/yLq162T+3PlSVVNrqRcQF4EQIrpgibifEDLDr4a2VttQoyZkpfnUntYhlbgGAiOWgnnJfWG64+MjYLDl9S1yquan+ci3/dnojJOa1TPkF8Oqjn/TiEAQ2jSCPZ6qvJGwNs1G2yWOf2Zi+sUtvzDtwzUzJz80B7SSufPmyvnnny9XXXVV0qlciYHGaf0x0w1O902NOKElFeSehZtQgWNqNcq6dP9lcsF5F8jb3/V2ueD8C+ToY47WMdDqtfN4rzr/26S5tUXqNY/MxcvB50XUE+LE5CbCu+a556VGyXHFshVSpkNro10hhl/qmSEn8IL04F0ItaGuwXyNTzzxhOWm0YuBcwgQIBAjREdf0M06A9ZJJ51k5XOc8/y+fG0Xxb+CIBCEVhDYR6/UTSUarjfIds2jYoTZG752g5lrNCS0CBqun1c2oCapahInnX6SXPWBq5PUDJQ7zFfMrSyxMeY+3DJVDTCh4KFsaXXpLvOr6Zr7YSgiIquMDkIkdtl+y+TUM07RblgXypv/6s1y+BGH6TyczbJp8xbBL2iaUlZ7xUTE11VVWW3R0Q7t3vTQww/LDk1dOeiIg3N5ZmitYIWmBq7larYjFlGlLK2fFJaDDz1EtjZv0wDEazYaCfeLr4w6ndjoSdC0dZsce9yxlgZDx/00oSXpKoNR1tHfchydCgSC0KYC1UmWSSNxE8v8Mjp0Dpnz3/zGN2XdunWWK8VxiMPJzIhPo4hL9l0sn/rMf7MBGdlHWYg5/4fdl5HMsH1T/dHuM6UxObFaeoUSHaRTqflmZPgvXrxYLr7kYvUBHmUTDL+u0UYmPyabv0YHYkQG1HmvjGOBAwho3dq1smHrRptpnYAIJiNCuWDmmluZ4gKZEUQg+ZZhkxhp5PkXXpCNr23MBQk4334MIDgtA4Js3dFqXaMgRy/PKkHlUzGNOtkR/6cZgSC0aQZ8d6uj8WD6MOYXo7Q+pP00f37Lz60/IscwuciVopFKJonMzVNT8yo1M0869STTvjxL3tbZis3szLq1pozQknZtWuBIz0viMI79JI9MzzBlTjUb1SAhD3ZAwNX413R70T4L5c0XnC8HHniQtKspSp/MDtVYMV0r1YcIaVeWa9eu7mQ2p+b2Zuu7SVCE7kyeFJsmeOr0pGIw6enpVTO4Xg468EB5+PcP67wG2rlfic58cFpPTXWNBQcgyPUb19voJPssXpTL/Ut+OILQRnrf07kvCG060R5HXa6hmRamWsE3v/EN2aKmF6YWhMZijmsts1SjdQ2zGuSUN71JO5u/V0rVh2TnZPsoukOc6sk7889TRmj+nEZU/mHoGgJI1w/BZUo02on2prxg/imCIbpUae8FNLh58xbKeStXGkmtWb1GR+Bl7oEkGbdEz8OHCBFuatpkpEcXJ3LvyMVLjmUjnwQqtBrXWrkPOvpXWmR4nqx5drXh19HVocEHUmWSSVcwlzmXYZia1G939jln5Uzb5Fk4A5Mz+4sx9JHj0zQgEIQ2DSCPtwrN81ftjEanTm+GBHrySfnpD39qWkllSaV1E6oq07Hv1e9N7lZ5TZnMXzxP/u7/+YxU1leaExsCIELofjMasDVi1TpofEkDHO+d7eb52bp2dTYkPfwPbbSspFypQM3rkkR7M59UdpBGiAJTlB4OBxx8gM3g9PJrrygJ9ktbR5t09mh0Uq3LAcWkql8nIu7sk61btsrTTzwjK885V/11SZ9VtDhmewIXSNPxsZ4VWgfJtyecfJKs+sMqaVVtsFtTSNCGe/VHpVcjq+CGNkeeWp8uJ+u5VhbxA3xyvJSQgiEQPyUFg37sihklo0JNHGY0R9AUujWdoaKCdIRkwhH2YwZdccUV1vB8dAj2F6vwvPjHPv8P/yDnnnuuaV+Qjpnf+tCkfWCK4l8ky/8LX/iCbN6wxUxMrkU7BEsWvwZfGGRl+1T7ZbBLOu6jtXGM6yqyfUnBFbP34YceUtN2s9ZD3lryfooV85nyXKGh7YFvCq1LDTLLiyId4YYbbtDx/pORMjLZbHd6EWF+1ulUb0Tdrrr6KmlorLcEU7SfmSw8f1r8eXwN6UDcaGwnnniiOvMX2wxQ7Ce9orJUyUxTP9DqwKipucmc+UcdfZRpr2hUrqEmvi9VXpWRnNzoK7pUx4pbu/Zl2bhRAwRZs5NkWs4hd43gwDYly+Wa1Lt0GcMMVRlRpu87tqcfgdDQph/z3aqRxkgy7e2//nUyCgXD4KhYVE4bH+OIoTHQ15GhgGjMmG3FITzr4AKR2Z8+N8SDtoSPEGc+p5EX9tGPftQiu/jKEKajY5vzSZilLyhT3xEhRSAmJzPbof/8s15ieL79ssvsEJ/R0nwxLU6vJz+NvEAjxyQe4EXFukAIBKEVCPjRqiVNDHNpraYg3LtqleZMYWYmSbMDpeq70b+uvk6pqauxrjuM2UUeFyRoRDha4TPomCZMMJ3LTncMgUAqRG/JfZ27cI6cduZp8v73v9+mpAOf9u72nKkIoYHn977zPcvlI3LscwVQDosLpIZvDPI68qjDZKWatAQVurT3BVox5ixkCKlSLj0MnnjyaWlr1/lNVVJFeZGxnkYEdv62TGPlUdXICNDY2jRR9JFHHrEkWqZwoxFZQ9LcJxoTC/NT4juzMfrxAWX/Ri61uPby/LkUFOUjCJ05RBlVxPPPSO3A5ISw0Ojwp910003Srlotmi7CMdOwdNuJslwDKkQ9e7Rr2RWXv1MDDkk3Ko7zwwI58i4s0qz3cY9qafjaEGaNDykcAkFohcN+lzXTzxBfECO6kktF46ERufAZc4eUhOOOO86CAaZpqPZQDLIrzSz9bJCJ59n1aj4eUd26WbVyyhmn6nR0Z8pCzV2jCxQd39G6IDaETu2/v+e+RPNTTuPHAknww3uXEFK/BmTK1aRfccByOfXUU3WEjiToAPYIhEpwpkv9a0xMs05TRBgrrUJ/WEIKh0AQWuGw32XNjMP18tpXrH8iDRfNABOIRofQQNm+4IILZHubdurWzzQ0NLS9RcDD+NsfOcvlNerQ/8SnPmFDC4ELAlZEQVlDbESNN2zYaNoUqW5g7ETl+IE5l3cqYRFJ5QeFHxGIjIAAZblGt0kDB6t1XDr8mXvRK3Co9qh1EFoBXgeNhwaRbkS+j9tpqG+QO3X8+4baBunTvCkaE43TMtfVwVapfQj31XH3Tzj5RB1JtcGewBtvAR5nyqokQTW97FQR314ltPSgi2htaFmf/R//XTu/L1U/I/1FddZ0JSEixJ1tnbJx/Ua55ae3mFmJ2Zp+D5j7vZqsS3oMAomdfvrpcsihh9o7gPwa9f3Q3YoyubZWexH87q7famS1XxNxE7Lj/YZMPwJBaNOP+RCfjVfPr73L5vVb5LXXXjNtggYDWXkDYRsn9dFHHy2zZ8+2xso56eu9nL11TVenuvoauewdb8MxZhihWYEdXauIdD766KPy0vNrNQE3SZY1jLMmu41Mm/WJlSlBdnd3yllnn20E5uQItlzjn5t0KCOmzIv3UNhvXRBagfAf/sXnMwvk9NILL9rcmpZzpqE19kNoLGy3trfKGeecqY1T0wk0c96PuzZToEfKW7Xjfg5+C1KL6lzme8QkZ6IVtCy0XPBj9Ay2CRCQxgHRsTj2yUPwA5HEi9HI+AEh4DBnzpyceUpZ5foCmEOUQAAm7DNPPiXdHdpjIaRgCAShFQz6xLfj1UNkCL/6zz232iKY7HMS8zUNb+HChXLYYYeZX8jP8XJijTWohKTfbIiMHL3tO7YbrhBXpU6UQqSSCVLuvffeJC8tgT6XxweVGflpOfZeNBF3n332kYMPPsjKdPLjGITnpufjjz8u9bPq4xUUEIEgtAKAT4NAfJ2+BbSHxx99QqrLq3NpATQuM280atfb3ytvOPYY7RVQZ/vYz+LCuXu7gBGC6YmGRuItPQsgHwaZLdHRSXQINg26rJHHHntMTfskDcNxI7yC+os/LdHgkigpWhqpMo63kZ1exGdy0l555VXZvq3Fi4l1ARAYbAkFqHxvrzJNPpAbDY50DRJqiXS6cB6LNUhdn6bDQHN8+PWcn97n1+9t63JmY1fB9OxQPN9z5ZXafSlx8rOfVAuE3DUy/ZlfwHFLDE2OZn8Ysj8+BF+OOuooI0nX0Fj7DwrER/9OJn0OKRwCQWgFwN4bT1pDYxsHM2S2Q80hFxoM57OgETC+l5ubXONlpc/37Rm7hksmoGhCYCwIxER/TtI4jjv2WDn88MMTzUrLZdggBnREGyaHjFncXUh9ScpJbsAJDqzxoe2nfTfZ5r2UlShx6vAe/STTatSzvb1dXnjhBS8q1gVAIAitAKB7lTQMF8iKBrZOR6SlIfovP8d9G7OJhUx4/EDsT5fhGpyXubev0ZpIuG3RHwi0WnxdZPSXksOmAn5bdI6ANWvWDPlh4EcindOnr8akXJNrDzroQPth4ccH6dcUj57uHotIo/GFhmawFOxfENoUQO+agq+HVwEJuf/FjqE1qL+G8cCe+8tqKdXI5UDZoFZGw4Psaqtq5fRTTpeqCp05PNvDxrU3yqGRpQlueL0z5rNHLMd5wx4dLe1nVLWkvwEBgjma3nL8yccLM0pJpfrQdNy07oz279RJT0h9oedAX6cmMGuvAZZK1bzK6G6mLgD61Sr8OobagNTpHAhHHHOk6oAa2dTZ6UsqtGdATbnNdwDuXRrhvP/3f7B3y3sZ6QdmuEY9zkeM08dAIAhtDICm6vBw4qGTNZnmjJtPQ4DwfOEeIDX8a0uXLp2qWyqacsEK7EzTypqH++j8BMuXL7dn9P28A3oOvPLKK2YupgHw95Ne42sDf8pH/D2x7T86+DYpM10/x0OmB4EgtOnBeadahvxSqxbA5zb1wWzZvNm2vdF5w0D7ovvOgQceuFNZsWMoAqYZ60i2YIdASvPmzrEJlzHZHXswhXwwE7dv325zdXK+H3fiYh9Ch/b9998/l7rBeelzITjSQfhhYpvr/XhSwsiRbT8W68kjEIQ2eQzzUgJf/C7VwJhjkgZIY2DNQsPkM36zRTozUcjYCJgJnzXBmSqvW/1cRCnpJeDYYsYjOPPxpTkBDichzmEf5WC+EpiBDFnY7+VxPX66TZs25cxN3h/njFQm5YbkF4EgtPziudul0QiGCyYlJos3FG8snMf5JIri8wkZHQGPTKbPArtlOgotAZUynTeAYdbAFBIib+2FdS+atsY1kBDiJMSa83SV+1Eh4IBQBtoYC8K5kCPatJfD2rftpPg3ZQjs3KqmrKooeDQEaAgkbeKIRryB0BBoNKwbGxtNOxitnDg2AgLKTxCS9fHUbkxgy2fWaGlEJ19//XWdtT2Zpd3JJ71O3kFCdvTUQNPjOO/NF87hx4huVWy7JGSobBgy5QgMoj7lVUUFoyGAqUJiJo0s3RjYpkHQeBo0uZNf/pCxESC6mRYwBL8jjzzSdoMnC5pWp/q8lmvAoLUlGZ47fZ1vcy7CijHqXEPz4/7OqIf3CMkhrP1aPzfWU4dAENrUYbvLkv3Lnj4B5/QO1dB6sn4db3Cs/XzMJjSAkNERgFSGiJJQhY7026+BgjPOOCNHMJAQPxCLtJ+mD5SZvm4kIoKnIEYnMD+fz+4qoBtU+ri/Pz831lOHQOIImLryo+QREKCh0Oj8S08jweGPc5r9/DmR0TgqNF2Az2gGmEhVOlKqCepCyE4I+GQxjItGXplpSbqGiM5aeZZ8vuTz1uXphbUv6IxZx8mlb32rLFZSq6rJ4rpTiUN38K4YgYN3Y6Sn74/3xjakhi+UaCemLMJ7DlIbiuFUfQpCmypkx1kuJgxfeubhHNBBB9MNwMmNhkFjCtk9BMj2H1CtjIRbUjlYIwxdzvR3nb1dMkv9kpBRlQ6aubvCe7AfHr2O9wSB+vtibfuU2IzssoWmt3e3njhv/AgEoY0fs7xfwVA33iC0Fdi2/+L7mgbh23m/gSIrUF3+9kT0FYDUnExcn52zYLYGXwaktqQWuJX0lO7wuamm5VrzaJD4u+Cdmfal/TjZ5+8w/Z7Y5/WPVmYcyw8CQWj5wXHSpaQbAQ3AGwENkoABpkx6BI5JV7iXFeB4+mPbBCvZD2m8/fhoa94VixMaExcPJy6vz0lutPLiWP4QCELLH5aTLskjZzQGCMwbDtsIgYOQPCCgmpgqTiamoalqBvE4KY2lpfFeECctItNOilybfo92YvybNgSC0KYN6qEV0SjSDQfSasg6kf1MGkk50Tk9l23PbPfjsZ4gAmpmQmQuTkb+eaw1wQCE65wE+cw25EbAwH2i7AuZPgQibWP6sB5S0/AvOuTWoA7qMl2njzEGPgKpYXLSYELygECKZ8A2jflYpdPvM60tp3+cKIcEaAhtOFGOp46x7iGOj4xAENrIuEz7XgiNTPaSLKGltTdIjEZDOgBLSB4QSGloYO3aFjiPJfQSgNAgKBa0a65314C9x6wK6O8xyGwsVPNzPAgtPzgOKYX0gPQy5GD2A+kX3ni0WUhPX7fMntOoOWdqYurnPp25m3VZZXb6NW10G7ds1lQD9aMRmUPDYNEIm611RXnRcHRW8+yfv4Mc/pDYSEv2BEgJAurTv17901k3FVoWlSzPaRaI/PnpP+vcnI1SojOll+vYa477gEZKMzrg45IlSyyQk34Xw7W1bJWxyjMCQWh5BnQ8xfEld+HXnaFt8L/4fm8ErNHSiHZu1T6HSLqxDGS1Cj/fy4z1xBEgujxEsh+ZUAXtDH+ma3ac56SGqckAAqGZDUFv2j4EoU0b1DtXlCYuGgCmCuPWp/dzFeRlpKaEtn79erGUKVPRhhLbzjXEnnwi0KcaWXNz86AvU4cT0sk59f2gGScqHO9wwYIF9gPEe3MtPJ/3EWXtGoEgtF1jM21H+NJDaGhozP/ItpMYRMY2GlqvEtorL79s92WkB9HpuU6AHIgGNPnXhgvARRHO6WoEZRjrDOEdsXiQhneAls3wRGjZbPPe0jL8c/pYbOcHgSC0/OA4qVJoGAiNgDG7+OL74gXTYOhIvVon9ECMxHRf9gOqmu3zspID8X8iCCg16WXJO0m/B0YUZh5P9jmZ+Tb1MHgAIwqzRnifLC6cGzK1CAShTS2+I5Y+0hebfeQ3HXzwwXYN/jJIyxd2dquGsPq55wYdzukG4uQ2Yo2xc3wIJMRDD1BGvuUdYFHWVlbZNHX+/lizOHExnh1DdKMlD9eU/Zrx3UecPV4EgtDGi1iez09/0TE5mT+SCKj/sqcbBybndh1ri7k7mVtSW5ppZn5L6bJ8X6wngkCi+aKpZTTajBAEYAQNn3fTSE5ZLnkFiXbMaB0HH3qQEaDXynm8Q9ZIvCNHZmrWQWhTg+uYpQ7/YvMZIvOkTLaTRpNoC94g0NxefPFFdUxrtnpaQxuzxjhhPAigndFhnQQcUjaIbJJ/ZkEZxd3fh2tifGauATQ0xI+n3zNmqu8fz73EubuPQBDa7mOVtzP5UvsX29fu+4LQjtWZvmkckBcNgkaDhoDWhhP6nnvusWMc14Jy90VZ3sByO2Nj3Agko3Qkvi/w7NdcP7TnX//61zbGWTLpSpe9EyOsUv3R0WXevHmyfPlye7euYfNO/N2O+0bignEjEIQ2bsim/oI3velNNtij+2ZoELZo42AffrRW1RYswjZMS4vGk7/3Y9qZ6miQGoNvvvTSSzbvAxiTb8aCQGoQHuOsletgnCGFQyAIrXDY77JmhoN2P5r/wkNeGW1YyIaNG+Uvf/5zMpyQklzIVCHAnAOl0qXBmjVrXjDfpWvLplmrH7NEc9EgOAjvxJN10MjOjqm6mSh3NxAIQtsNkKb7FHLR8MXQaPj1N+1MG435zPRzow4l/dvf/ta0AvZ5TwHPiZru+y3W+jA1kdqaWrln1SrbTkzQpIuZkZruZc1MUPuruYmmFlI4BILQCof9Lmuuqa+Sk08+2RI0vYsNJxPlREsjwZN8qNWrV5uzmuRaiM39NrssOA7sHgKKpf14ZM9+fes2eejBBzXKydR1aoKSeKvaGT80/OBU1dbIG44/TubPn2/ktnuVxFlTgUAQ2lSgOskyu9p7jNAgM4RG4yYon/vU/MR/85u77pJKprWjAaqWYEECTgiZNAJoXWVlJRrZbJcnHn/c5u1EO+NdgD1k5oK5efpppyUf9bqQwiEw+FYKdw9R8zAE0LTIOB8e7aQxMV5auR5nLslHH3lEXn311VykMzS0YUBO8KObklwOcd3xH/8hFToRimtkHOddkM+Bj+2AA5bLwYccJNX645Ih8hxSMASC0AoG/a4rLi9Pht8+TX/1XevyFA40sX5tTORFMdv3I0pqrZps65I0NP8U64kgYFylF3Z398pLL7wojzz6qHToD4gTnWtqrJmq7vAjjpAFam6Wqebm50yk3rhm8ggEoU0ew7yVQGNgyVT2S1lDqRx3yrGyeL/FUlKZTF9XUapjpXX3SWlGtTSpkAEdGu1H3/2RpkDpazSFQQMEOsKtjqaWWzSDLbeNRtHfjwZBtDSJmObt5mdgQZkBcFJMdP5O1r50d3fZ03Rr8vK3vvEtqauukYqyCsn09tmcqP19mvk/gGlZKtu2Ncv73v8+i3YyZV5/aeBayK9CEFoh0d9l3UleE9HO008/3SbItQmHtfcAfjU6PxPRZLupqUluv/12aWvZYWZQWkNQerMayHj37bTvZ5fVF/kB12Lpp4noz4jhA050dQIjegU89qc/ydpX1tooweCNSY9WBsaUgXZ27gXn2rBPHANjjocUDoEgtMJhP0rNNLFkaJq36qzeRDUJCrBmvC0aE43OzdF///d/N2Jjvw0npCWjPyQ6hDq3S9QUys4gnlTKa997X72TvvKX4QzWpdpvkwWcWDrau+SOO+6Qdu1wbsOeK1z8gEBc7kvjR+bCiy7KBWx4axXlkVibfMcK83/v/VYXBu/dqtXMoIFEI1ixYn/T0iprqrUxJa8LIkMToHHRqLZt2yY/+9nPhvhvbOLcYbV5Qx62e6/9yA8AC+KaFxjtUBK7W/P8HtfoZofO4UBumfcMAHuWCu0RcPhRh8thhx1mmhoaHBoafyGFQyAIrXDY77Jm0xhKVBNQk4jG8+53v1tn+k5GfWCWb0ZHZbQNCI0G2NzcIqtW3Sf33XOfdLS263HVzdDI+hMdjYo4zxvvLiveSw44DmhaTvJsI3zeunWr/PKXv5Tujm7zTzp2vZle87iVamQTs/+yyy7TpNsau87KUg2Nv5DCIRCEVjjsR62Z0R4QNIcDDjhALn7LxVKlWhrRTZI6EUwg9+2gqf34xz82AqTB0gi9sdrJ+m/4Z9+/t62d0BwPPrvvq0Ujxt+9+WabuwETH3F/JT8gmP74zo466ig5VaPQ9Q119kPBD09I4REIQiv8O9jpDhjnwX/pvdG94+1vlwUL56v5U2nE1K2zP6GIlelExKq0SX9fRh5/9An5xS23mv8n06vOa0ZeRUtjUY3NFtPadqpyr9phwQDDTLVdVXyJWLJv6+tN8tijj8sTf3pC2nckfTIhOsiKHwzMTsivtr5GLrn0kmRwAN6V/niYtqxeOLTrkMIhEOgXDvsxa0YPo0FBYg2zGuW8c8+VUs1R6+tTLS17jAbmvrTKqkr5/vd/IK9psi3Z697H0zUSrklv83mvlKybCyKyQKcC3dvTJ5t1voAbbrjBcs4wIfGdeQ8NjyxDbsccc4ysXHmO1GmApq83cQW4yYrWHFI4BILQCof9LmvOkOekv/SQGfMIIA1q2rz1r99qQ9QQIKiqrTI/Dud0dnTp8Nw9Smzl0tOdkX/4X/9LXt+8WXpVq1D1wcpxH5z1+/S5PHd5B8VzAHMxJxAZC78UuuYYuHVrV7Pt27bL177yNWlSLY0fA3CFnPwHg/dQWV0hc+bPkY9/8pPS3tFpmll5hWrBlEm2hi4R5VQcCihBaAUEf1dVo3EhNCYaFguaArMJve/975U5Ou8j+zhOo6xvqE8IUNsuWhk9CH7wgx/Ihg0bpFMjdmSwI94tx7Q0vdbWdqS4/qWfy7HkCUnTgHxsraQGGaFZgeW3vvUt2bJli5mWaG6ucbk5iWbWrr0FPvShD5lmRjenUu3rGbJnIRCEtme9D7sbfGI0PBpVsqBoDUhdfZ2OWX+InHveeZZsS34Ufh265ZSqdlau9lO/mkBtGul89OE/yc3f+Z5UVlRLe0ubReuM2GjQKTJLN/49EIpJ31L6+dy8zO1TLLZs3CI/+tGP5L777pON6zfqNJv4JNUU1QUNDbLr7OmURp3V/jxNoj33/JUanKlU36U2HfjMOS29Pem7jgImikAQ2kSRm8rrVENQ1jGTJl0NjQst7V1XvNMin0mSLWSXtCpMVQQSJPWAPKqvfvWrybRqrk3oqRz3a3ydrmemb/szOXGBW1rQrMBq+7YWefrpp43QMDO5zn9E2EYrRjA3mQ396quvth8Q9lEm2vHwsjkWUjgEgtAKh/3oNWuDGtAQHIsLfQVpcKQNXHPNNTaHJ45rS/zMmqml2ivA8s80qrlx/Sb5+c9+Ibfeeqts3rApZ3Jpy4UFc6SWK1836CQ104W+mSyQkpPUkGfSR2ze2iwPPfSQEf4O7TZmkU7FFlFdV8oGtLes9t8kGMDywQ9+UBYtWmRYQ2KQpRNmrmy036HcmTsUG9ODQBDa9OA8oVq8QXIxjYfUAnoRQGj7LlsqV77/Siu3dCDpYwiRuWbRr53UITomW/na174m9957r6x/5VUzSbWwCd3PTLpIkcjdrhMQOyCczRu2yAMPPCA33XSTdRnjR8LJCTOTQRxJXsZv1qsjblz53vfaiBpMYIO4Fod/ju20mLsgvSO2pxWBsv+pMq01RmVjIoBjH2JCO2ONkHPmjTSjOWc1Oiz0fsv2swMvvfCSNjydmFgjozTCnp4OqdPjaFvtbe0WeXvqyaekRkdWZd5P/G0oYqpj5O4lqYfo6mA9uYMzcINnAw+ICkLj+UixaNG5Ne/8jzvktttuM5/ZgEZ8ISXMy94uTY5VwrM5T/WZZ82ZJSeeeKJc91+vM5OzRBOajfhgLd6HOeWGggOiI+weelJ8mjIEhv68TFk1UfB4ELDUCr3A/DM0SG2ctp0thN4CfK6uqZIrr7xSDjr4ICW46qHn9PWav6c627uAWb1v1gz466+/3nw/+H+K2QcEPpAPRIYmxZrgCVPRkWvGDE7giB+SY9YDI4svI27gN2NI7U9qigbjz40klG8ElzqsRYUUEIESfSGp11HAO4mqdxsBtDCimwjdc+iu88UvftEc3Nu3b5d6qbVGzIulRwEjftGonRRPPu1E8wkt3W8/aZw1S4fMSUaRGPwqDAYN2EeDn07Jzk2iqs7IX00M75EF6lfyJ0qp98zzon2R9b9RZ8r68Y/+r/xeo5kd2V4A+M2Q0v6hv+ul9f3mn/z85z8vS5culQr1oSWSaHyOx67uYnrRyt5arAyBMDln4BfBGxQaFg5ryGrx4sWyWZNp0TR2NO2w3DOO19XVSkb9QWw7qaGpPP7EYzJn7lxZsWKFzVHASB6Um5Q9OGFx2kcEQXjdUwqbMgIciok98t/OVALJZ9RvaGagXutEvE0TZdesWSM333izRX2bm5t1GPMkz4+yESc2f6alK5bIpz/9aQsC1Km/EuwSHBKTcywMklK9tFhPJwKhoU0n2nmsiwZMw4Jk8P9AZM/pBMT/9m//Jn9c9aDVBCl4Y6RB9qgZilTp0DdoeNVKdiefcop87GMfk6rKZOJcctUwuSA/SAEnOde6RmgFTPG/nekqqdCJwsmKva51GuH4hXoi52Bm/+q22+X7iglDLIFXRWlF7prhROaa2uVXvVOu+8hHLBHZtDztbgYew8WrG77f73P4/vg89QiEhjb1GE9JDTRga8RaOqSFpjZnzhwbn2vNc2ukS5NuW3a06oQqmiiq2hfT30F8XJPJEDjokbaOdmnTWY0eeOB+WbxkX1m23zIZ0E7tOiKkBRcgBb+Gh6AeZCwNxU6agn9OFNQPobvpzededfhnjHzLtafEVlmz+nm5+aab5f+qmdmlQ2oP9A1oknGlPU/uObIamt+qE1xPf7f5z5hrs0ojxZQPFsjuPLvfp5cb6+lDIDS06cM6bzVBRhCYCw3UNQg0qvWvbZSvfvl6eebZv2jyaJMSVLmNiw+Z0bsAh7f1LjDNiy5VtaaJrVy5Uj5w1dVSN7fO0j0gM8QbM2snUa97pDVhjHzIzsQw1NdlrjR4Jntiy/ZWnbu0X/7jV/8uP//5zy0lI6NEZz5EHV+O+0fjcqx2dY/l1SVy6GGHyf/43Odk4YIFOR8axEgqzHAZrqntfN/Dr4jPU4VAaGhThewUlusag2sLTmhOdPU6s/oxb3yjbN6yWZ5VMxTCIpegq6dbk0U1adQCBIn2BQF2dqLBlNgoHQ/c/0cpqyq1rlWQF+TnRDa83l094liE5r6rXV+fpYjhTOHMpWtmNXeNaod29WrSQS7v+u3dcuO/3iS3/uznOpmM5pGpJoqgmUFk3L+ZkPpco0lLW4tpo1vVTD3uuONyJFauQzWBheO+qzKC0HaFzNTvD0KbeozzXgMNyhsna9c80KgwwxhRtVbTNQ4/8nB1bO9jpNarWh3O8Iw2yB4dYYJrmMWoslxNKo32ZXrUnFSS6GjrkIceeVCeefrPRhrz5s2XGp31qEtnQKKfo+VoQTSjLIyqO5qMRWg2SBkVZKOQXpYRmO7mmRl5jEmA29o75MH7NUlWiew3d9wpTdoDQFRLqyzXceP0r0w1sz7N2yvXHhTMrcC8AWPdX0VlhY2mgek6e85cw7BWc/g0tmK5bGWKb1ogsPSSPhbb04tAmJzTi3feamPAQbQnxLUG1hAaI9riO0NeePEF66jO6Btbt2yziYqZhg1NpapMc9e0lTI9XqmSXbemgKC9dZd1KYlpp3aNhu6nqR3naWf4iy6+WBbrLFQVqqWMJf2lg921Rjp3LEIb0OnlTBiUMidKYcaTSfLwps2vWwrGr351u7z80ktmInd1kp+nmqf2nKjSoX5IQCbyCdv4fAzt6jes1M7lo0l5dZk9OyNq4EMjd2+FjhpcV5cMt23sNVoBcaxgCAShFQz6qau4V+flRIfRjjlGWMxgxKCPP1EHOb6lWfWNFhSgyxRaXYnyD1yBlmEep9KEUFz7404b1IxlQhCm1WNZoL4l/HF0luc8VX4Soazykc0yJ15MZLsmq2lmr7RVYhJm96BF6rmdOrY/9bz88suybt0r8t2bvmPzYZJ/x11jaos+CxM06yWSUWIj0Rgy4/paJSIinqVK1qVotGXGjOlqh2zjc+NeWeg6tu+yJfKZv/s7OeSQQ4zwk8CKan2VO0c+3fwfUmB8mDYEgtCmDerpq0gzsrQyBuAe1HBaW9vk1VdekaeefEZ+qNpap5qWEEGmJ2ncVTr9Wo/60zBL+8vJ6aJjfBIEYI3mRlY981WS83bwwQfbyK00cpJPiQiiNUJUZdU+7NFgJHasp4fI0C7x6XV1tkt9XaO07tguG7SD/Zrnn5dnnnpGnlu9Wscs26oaZZm0ahcmnpF0kp6ujDrutTO5kjMaWn9Pr9RW16o5qnOV6lkNmkvWr93IerRfJnlqY2mQTmhOunWNdXLCCSfIpzQ3jVFqITSOMVgA9YMVn3cnYDIWDnF8cggEoU0Ovz3yap3kTu8LpznNOZswq42fvoxtmiXPBLq/uvU2eeqpp5QMunX4abpJVeqi2pqqaQNqMjqh+QNCODRahEYMwXEOGgxktmLFCiM52z74AHXE60gVmGwsGpH17lxcD0E6gfEZIkPbYw5Moq9/efbPpomtfWGNjfMPiVJ3khOns8frvfToPeNH4z4Gspn+aGg9Sqp1DbXaG6BTUdB0Fh2WnMjk9ubt0tDYYKQ7FvH0aR5e4o+EAJM6SIl580VvlvdfdZWSWo0Rpw/waP1G9TzHyHHi2UKmF4EgtOnFe1pqQ0PT3otKaYnJVqo+MqQs22u6U03Qjs5uufP2X+tMUT9RouixYACkAkGU6Uiu3jhp/Gy7tsZniAUy41wavl2j25iAbNfoJCI1lTVSP6te5jTOkVolmPqaeimvYhDKcunN9EifBiEYOJGp4lrbW3Xm9zZpbmkS7q1fNZ+6ugbtLN6pd42Wic9P9TElDRaisqSt1FRVGxlmNMeMerk30/I0j4z7QqMkAHLMG4+RV19+1UakBYfdITRIW6syLRZSRputrquWz3zmM7Jy5UolygolUiV5rVOhzknat5nbGRvThkAQ2rRBPX0VpdMmBtta0g/RiAliU+WtdUeb9HX1yve+d7PceeddRlRoSEQzXZzMuM5JDa0MUoM8IBgnOdYQS3evzmeJ/qQJulYWbZ5Iqpp9jDFGlJH8MIs2KlH5GlPPlEvO13t0nxg3iylJFJb6uA8Ih7WbexAY0U16OYiavHw+R4nnb676oMxdMFe+9MUvyf3332+k5sEUT/vwZy3tT3ximbLEhITEKAdiQ6gTX+KXv3q97LtkiZJqYm6iiZooESckN4hfciD+TxcCkbYxXUhPaz2YmkMUB/0EGShTqDDlXan2HqhSc4wo3ina/emM00+zhrtFc9fKlNDQNHq6k9mlXANjjTiRsA2J+cJn05S0HiO6bH0M0cM1kCgExJrjrBGPehKZhUDYzXEIE6FMSyTWMrgn8sGok3OsHD2Hc6srExN35V+tlE//7aflnHPOtt4TRGaXai+IV9e/KtubthsZU67XyzZS4lFVfUzKhdC8Du6fbUa23bR5ow3DRH4f+DEBjd2HPpKt0ypbUnT8nyYEgtCmCejprAZjE6XCSCS7TrahCnX0K5n16lR4lsqgw9rPXgAAEhtJREFUu9Do8C8dfczRcsJJJ9ighvBPS2uL+Z+cWFxbo6EjNF6IBc2FY4iZojraKxoa2hblqAqWWzyXjIF4B0ip4DJdIFvyvCyeoU5/fHDlqs31kWJCtr+utTqL2vIs1NetmfvUXannL9FAxdlnnyXXXnetXPjXF8qifRbaJCjce5n61qrUPJ2rnfGfevopadUeBYgTGppZjsy4BS0fM7ZCTW+ur1SitGBD9hm7urVbmQYlDj30EEtvsf6vELU+SEJsyQ8HdYRMLwJhck4v3tNSW39/otlANqOJDySpOlDuNJzqlWVVlrPGENW/+c1vbLQK0h6c0Fwj4zMBBQjDNSbWmR6YSQVWzQoOfBcG+THRFWkUTL+H0MeUY8yFTIAC6dHeDeSfmeant4mpC4khmKQHHnig/PVb3irHH3+8BScgu9LGhIh8Sjmim5iZBEQIhPztJz9t17vJ6aam7dR/Pcq2lN2v+XBWnj4T9ZJUTIChR32A+Oc+8pFr5TRNYWHctKTA7HND5iEFQSAIrSCw79mV0ojRNFgTKGB6t4cffth8UM8++6wNU4S24340185YYxqW9SX+La5HKIslTYhsQ35el2k2WVg6+zvsfDM/s2VAJJAqxHT00UfLSSedJGeeeaalkLDPCZUiiG4iZOK52D0qU1Lf97/7fbnxxhvNr0e9aGF2HxotHSlPbTjhdWe6jNBq62vl7//+7+XoNx6tUwnWmfZoGqrOCEV5yZDpWd8j5rdqqunn9HuLdf4QCELLH5ZFWRINlAZPBJNGCqkwmxRJrqs1L4yRX5uamszUZGYka7DdGgDQ6zgfImGfL0Yc+tmF434OpIT2VVGfpIU4gZHEe8QRR9gky8uXL5f999/fCIXrIFAvmzIpn/wwZFeE9vqm120ezof++JDls3E9GmB3u07MrFJWNUiEfB5OaKWVOvqtdrlqmN1g2tn/vv5LZvI6kdoUd3qdm7SUgWBSp+812Rv/84lAEFo+0SyysiAMSMYFsoCoIBoinTjIITMmNIbYGEhx06ZN0rpth5EggQXI0DUgyqEMBAJh8QYOkVEm2taipQtlH+1mdYB2NyKBd4lGFCFLjzqa+Zm6L8pw4Z51ElL7mCY0qzerofXp/Avr16+Xf/zHf5QXX3zRfIYQI6P/YkIzbHlahhNa7wD+R+0epQnAkO2xJxwrH/v4x2XhovlDNMV0GWxzD+l7HX48Pk8egSC0yWNYlCU48ZgJpY0XovAGSWNGOOYLpEX3JM5r2txsUVISYllIBYHcIAzOQyAQCIyFWaxm6VDgzKqEaVk3W0cHUXENDbKDCLx+vxfOYZ8TI5+5H+2PbjISoXEA/uvu6JEnn3xSGGa7TXtRcG/ckz93UkLyfzihaX8GM7erdE4H6iMt5Pzzz5drP/Jh0zDT90oJlMmS/nFIlx/b+UMgCC1/WBZtScMbebqBjtRQiWAiNHbEz6eh070KqVCSQmjktmjOWk5Sm6Zx6QHXbEYiCz+Wu36EDe7BgwBELMnyb2/pML/gP/3TPxnhDmQGkqhuNqji53txTmyZEk0RITig0d4eosXap5OO7B/56EflfO3IT08Fnj1NtJRh95DSJr3cWOcPgUF7In9lRkkzHAEnIn+MkQjDGytk5KSTO1+/VfjAyzXtgYV+lmTWs2bEChY+V+owPUQTvQuRX+9rJ4C0ZuP35iTp5461tmeAKJ0s1Sqta6y1kUTQrghy8ExoarsjaJwWcdWcvRI1ZbuV3H70wx9af1OPxDr5enkj4ejHYp0fBILQ8oNjUZWSJhB/MBqjLyMd5zxIxtaaeuF/RiBOJMPXfPtYsvtz1+guL4vyEK/bidQ/sx6vQKC9OhYcS4d2v7r22ms1p+xQaZzdaGPJeXn0YLBeDL7D10pgfd2kdiT5d6yryqvMf/j1G26QLZu3SreO+EF2Sr/ms5Fnx3Zu8XJinXcEgtDyDunMLzBNEq4JpdfpJ0Q7c4Lz68Yim+Fk5eX5dXz2bS/Tz2Ht95Let6vt0eqCHDEV8eFdc801FjklVWQsqdQcOXLveHbOxy9oAQU1pwky/OQnP5Ed5O2pCWvYpDk34fyxqojjE0QgCG2CwO0tl6WJxbfTz+5klt5Hz4PRFjJlRz2eLmyE7ZHuY4TTbNcQQnQNUY8k/UTpE6omcU25LFu+TD792b+1Mc4s7UMDC5iOmLgQl3W50nPpXcE4a4yEy7O7uU09etRG/r31Z7+Qe+9eJa+9/JoSc/bOUNSU4EwbRWNjCck7AkFoeYc0CtzTEbAuVko01vUrSzg4+UkP+c8f+lDO4U8KCURl0U+lYCZt3h2B6H6o/rS1a9fqKCLtuUt25SvMnRAbk0YgCG3SEEYBwxFgtNzJLMPLy/dn08AgMr79uk70xYzsu3SxnHveOTZXKSkkHd068oj6x+gtQZJsablGaft3JjWioemIKEMWNW9rlu985zvy2muvSW9nkqqiFYVMMQJBaFMMcBS/5yHgZuhw/xo+tXnz5sl//i//xXojMDBld5+OraYRWZJt0bw8yjraU6HREQWFzL7yla/YtvXGgjzD1BwNukkfC0KbNIRRwExDYDiRQXBOcjzLgoXz5MPXXaMa21IbbRdzlLHd0gEQziMvzXPT+OyaGr43fG47tu+QDa9tkO9///saOFBfHMOdZ3P0OH+4uF9x+P74vPsIBKHtPlZxZpEiAMGhfbGG2OjxcNBBB8kV/+k/EW614ABRTO96NRYMaHpMhccwTdu3bzdCW7VqlfWYSPWXH6uYOD4BBILQJgBaXDIGAviKJrOMUfxkD0NeJtloK1FX61iua9vWqCY+tAsuuEDe8573WJAAooOoPKo52j2gtTFFIKYn11VVVMk3bviGdehvbx0MEoxWRhybGAJBaBPDLa4qAgSYk9QFp78LmhhExNyk73zXu2z6PgiOAEG3TiozljBHQ28f46cl3bowQZml6l/+5V8SLW2sAuL4hBEIQpswdHHhLhGAGyaz7LLg/B5gJvURo7E6DzH9NUs1x7a6rkI+/umPyYIlOoijfq6qr9Rp/rQDvE4j0KOTsTA2Wn+vTsGnPQdKMzrSbkmlRkOznfd1H34zTFlM1s2bN9sIH93qX6NTBQm5kN3uaH35ffLiLS0IrXjfbTzZBBFgToWEkZXDtCcAkc+/+Zu/kdk6IghmJ9obJEWeGscZGbeyotJ8bDZzFkm3eo4NK65aIIQFcTHyyHPPPSf/9r3v2fWUhRZHeSH5QSDmFMgPjlFKESHA7FMZHXGD3gBomtVVyRBHlZXV8vhjj9mYaRBRRiOXFkhgzgR1GuIzS/p3qrZmRKV7CTRohBTywgyF2NZv3GDdrfZZtNiGT3JCw+xNm75FBOm0PUpoaNMGdVQ00xCAgFwbY96Ad77jHXLW2WcbcWEuQlpIv5IWnb2YE4ERRNhGMCsRymBBm4Pg0NToSfCKzmTfpfOjosGxP2TyCAShTR7DKKHIEFBD0PplYkqiUUFGkA7a14d1ZA4mZmGSFPZZJFMtVJQ5iK29syPR7BQT/HD8cR5CUi6aGvlpTa83yde//nXZum2bjciBZgapBbEZVBP+F4Q2YejiwmJFgK5Q3iMAAoJk3Ne1UIfcvkaTbhkinB4EOPvdF2YTrJi2lRAYROhanI/US1mczxwNzMvw7f/zf2zMOMeSa0ImjkAQ2sSxiyuLGAGc/EiZzvkJGRkh6VwFaFv7L18uV1xxhQULKquTbk4QUUmF+sp09NqBMj2vNDEjbX+W2OhJgF8OTY+lpalFfnPHXfLbu+7WmbW2Jv1Bw/Kc1LcqCG1S8MXFxYgA5l+f+sMQtDV8XxCQaWs6o9TcOXPkbO3Efuqpp9rkLXRyp+8mWp0TGGvXztJrP07ZbNOt6stf/rJs2rhR2nQmqZDJIRCENjn84uoiRaA8O/kx5JYW064YVlwJ7r1Xv89mpSLpFlJjdNuMTqiAFucmK6TlPjTKMT8Z46Jlc3rx0XW1d8mXvvgl2bx+k81zEH60NOLj2w5CGx9ecXYgIH29GalSU5MZqz7+qU/Y3JxoWmhwpsWpnwwig5ggNhYnKbQ1I7XsMc6jZ0Jzc7P1+YT8/LhfA+S+L+AfHYEgtNHxiaOBwE4IlKufDJO0XmdOb2D4bp2+btacRh1IIyM9GXoBJEQGWUFgLGh2CITFthGeamo+QkdLc4us+t0quevOu+x6J7a0drfTjcSOnRAIQtsJktgRCIyOAIQFKaGpzZrVKIcffrhc8e53mybmBOR+M7QztDbXzNwU5Tz2saYsyuTzLbfcYhobhJcWPg/flz4e2wkCQWjxTQgExokAxILvy0a+1RY0b/4cufSv3yJvu+wymzDZtTEvloABhIX4tWxDYHyG1DiOL23Ta5tsVnf2czxkfAgEYuPDK84OBAwBSMsz/yEfEmxJ5TjssMOMiHp7BjudQ0zuR+NcFtfKIDM/RopIV3eXpnBssTQRSI5z0+LEmN4X24MIBKENYhFbgcBuIwDRQEasceqTYLtw0Xy55toP2WQrNbU1VhbEhcnJeZARS2l/qVSU6FR4A7p/QJugzvPJdplGViE1JH2+7dB/fr1/jvXOCASh7YxJ7AkEdgsBNC9IDU2NrlBEPRnp9vLLL7fO5xAZxxEnP4iq1xJ1kw7s/drB3TrBZ89R49MGl3Sz1TUy1lwbZqjBuct/QWi7hCYO7K0IKG1o9tngMhoOEAxEw4Jgel562Vvl/AtWqsY2T7p7NFm2JCOVVRoY0B4EXd3tUlrZL9397dKV0dFrK5TYqnQ8tZJuKasekPmLZtss7t5VClJEvHwnONsZ/3ZCIIkl77Q7dgQCgcBEEehXDeztb3+79dfs6Oiw0TWcoBhDDe3LSRDNzQIMqoFhtl555ZW5YxOtf2++LjS0vfntx7NPDQKqrS3Zd1+5XIME9Pus0qTbtvZ2HWMNg1K7SeFzI/Kp2+zr09SOuTqI5JtOPlkuvuSSqbmnvaTUILS95EXHY04fAqUEAXQY7uVKZp/4xCfM77VAR+nw3gRoZZimmKtobMw3wLnXXHONNDQ05DQ0NzPTdz7SvvTxvX27RG3yJEFmb0cinj8QyBMC2p1TSrKqQmvLDulUU/JHOqDj7+6+W9auWyeNSlpoZaRrLFq0yCZiueiiiyywQO8DJm9x4vJ1nm6t6IsJQiv6VxwPOO0IZFWETF+/lJUzVHe/pXYwScrWrVvlpbVrLZWDMdX2339/09zmzZ2bI0FG+HAJQnMkdm8dhLZ7OMVZgcC4EMhoP80ynUugq6tHCSsZW62np8+0MnoOkOqBuVmmkxGXJAFSKx97Kf15XJXGyZrXFyZnfA0CgSlBoE81s3LV0NypA1Gp+8xE3WcmfGbbCTDZG/8nikAQ2kSRi+sCgV0gMGgwjnxC2qQc6Qwy4EImhkBEOSeGW1wVCAQCeyACkVi7B76UuKWZjcBY+tXwUXBn9tPuWXcfGtqe9T7ibgKBQGASCAShTQK8uDQQCAT2LASC0Pas9xF3EwgEApNAIHxokwAvLg0ERkRgrDDniBeldo7lhEudGptDEQgNbSge8SkQCARmMAKhoc3glxe3vociEBpWwV5MaGgFgz4qDgQCgXwjEISWb0SjvEAgECgYAkFoBYM+Kg4EAoF8IxCElm9Eo7xAIBAoGAJBaAWDPioOBAKBfCMQhJZvRKO8QCAQKBgCQWgFgz4qDgQCgXwjEISWb0SjvEAgECgYAkFoBYM+Kg4EAoF8IxCElm9Eo7xAIBAoGAJBaAWDPioOBAKBfCMQhJZvRKO8QCAQKBgCQWgFgz4qDgQCgXwjEISWb0SjvEAgECgYAkFoBYM+Kg4EAoF8IxCElm9Eo7xAIBAoGAJBaAWDPioOBAKBfCMQhJZvRKO8QCAQKBgCQWgFgz4qDgQCgXwjEISWb0SjvEAgECgYAkFoBYM+Kg4EAoF8IxCElm9Eo7xAIBAoGAJBaAWDPioOBAKBfCMQhJZvRKO8QCAQKBgCQWgFgz4qDgQCgXwjEISWb0SjvEAgECgYAkFoBYM+Kg4EAoF8IxCElm9Eo7xAIBAoGAJBaAWDPioOBAKBfCMQhJZvRKO8QCAQKBgCQWgFgz4qDgQCgXwjEISWb0SjvEAgECgYAkFoBYM+Kg4EAoF8IxCElm9Eo7xAIBAoGAJBaAWDPioOBAKBfCMQhJZvRKO8QCAQKBgC/z/2/dXzEOErJAAAAABJRU5ErkJggg==;" vertex="1" parent="1">
          <mxGeometry x="120" y="170" width="71.08" height="60" as="geometry" />
        </mxCell>
        <mxCell id="0IcsC1O1_N2VIoIIlEwo-11" value="" style="shape=image;verticalLabelPosition=bottom;labelBackgroundColor=default;verticalAlign=top;aspect=fixed;imageAspect=0;image=data:image/png,iVBORw0KGgoAAAANSUhEUgAAATQAAAEECAYAAACm+8gyAAAAAXNSR0IArs4c6QAAADhlWElmTU0AKgAAAAgAAYdpAAQAAAABAAAAGgAAAAAAAqACAAQAAAABAAABNKADAAQAAAABAAABBAAAAAD7WBL7AABAAElEQVR4Ae29CXRdV5XnvTXP8mzHjp3YmWfISObBGagMkCIMSUOABKqbkNBMDUXRtZqvm1pVBaspwgdfgIZKCBRjQyCECpUQQpxAQiYyQ2JnsDN4jC1ZsmbpSd/+7fv205UsS5b0pGc97611de+7wzn3/u87/7enc07JgIqEBAKBQCBQBAiUFsEzxCMEAoFAIGAIBKHFFyEQCASKBoEgtKJ5lfEggUAgEIQW34FAIBAoGgSC0IrmVcaDBAKBQBBafAcCgUCgaBAIQiuaVxkPEggEAkFo8R0IBAKBokEgCK1oXmU8SCAQCAShxXcgEAgEigaBILSieZXxIIFAIBCEFt+BQCAQKBoEgtCK5lXGgwQCgUAQWnwHAoFAoGgQCEIrmlcZDxIIBAJBaPEdCAQCgaJBIAitaF5lPEggEAgEocV3IBAIBIoGgSC0onmV8SCBQCAQhBbfgUAgECgaBILQiuZVxoMEAoFAEFp8BwKBQKBoEAhCK5pXGQ8SCAQCQWjxHQgEAoGiQSAIrWheZTxIIBAIBKHFdyAQCASKBoEgtKJ5lfEggUAgEIQW34FAIBAoGgSC0IrmVcaDBAKBQBBafAcCgUCgaBAIQiuaVxkPEggEAkFo8R0IBAKBokEgCK1oXmU8SCAQCAShxXcgEAgEigaBILSieZXxIIFAIBCEFt+BQCAQKBoEgtCK5lXGgwQCgUAQWnwHAoFAoGgQCEIrmlcZDxIIBAJBaPEdCAQCgaJBIAitaF5lPEggEAgEocV3IBAIBIoGgSC0onmV8SCBQCAQhBbfgUAgECgaBILQiuZVxoMEAoFAEFp8BwKBQKBoEAhCK5pXGQ8SCAQCQWjxHQgEAoGiQSAIrWheZTxIIBAIBKHFdyAQCASKBoEgtKJ5lfEggUAgEIQW34FAIBAoGgSC0IrmVcaDBAKBQBBafAcCgUCgaBAIQiuaVxkPEggEAkFo8R0IBAKBokEgCK1oXmU8SCAQCAShxXdgj0NgYGBgj7unuKGZgUAQ2sx4T3vdXUJqQWx73Wuf9AOXT7qEKGCvQ2A6iYa6SkpK9jqM44EnhkBoaBPDLa6aRgSmk0Cn8bGiqilAIAhtCkCNIvOPQJBa/jEtxhLD5CzGtzrGM7kZNyD9op4qKdG/0cTPKZFS6e/vz51aWpL6PcSPnxHp68tId6ZHykpLpae3Vxob63Pns9GfGZDSUq0vVWVra5tUVlRIeXnydSwrK8tdY9Ym52r5dh9Z89PuozQJHox1/14Y9x9S3AiU6Jc7QkrF/Y53ejp/5QMl/TuRWf+A7kv5rJwshpMBhNLT1Svd3d0ya1ajtHd0SvPrTdLc3CxtXe3S0d4uW7dtky2bN0tLa6ue22UEZ0Sk5UNg1TU1MnvWLJk7b57M12XW7NlSX1cnc2fNlYaGBqmfXSdtbR1SoURXqgRZojwH6WUyGYH0IGTECZd7H0Kyw558+DMMOxwfiwCB0NCK4CWO9xFcQyuVQU2IMiAba/T6EweBOPFZ+aol8XlHa7uR0Y62Ntm8aZO8+OKLsu7FdfLKK6/IZiWvzs5OW0M6kN08Jape1dQgSStf15TtAjFt375dKisrpaqqyghr7ty5dt3y5cvl0EMPlRUHrZAl++6r++ZIa0ubkR4aW4lqiJRZWpp9jv4B6c30WRnUlyZm6jMy1XW6fr+PWBcHAqGhFcd7HNdTOKHt6iJv+H68TcmrtrpONmzcKOvWrZM777hDNqxfL+teftnIaN7shLQgLogMckLSJMZn6nWSTN+Db3M+BAfhcA8QHBpfaUWpLF26VI4++mg55JBD5OxzzpHF++wjnd0dVhfXcK1rbtTl4mX751gXNwJBaMX9fkd8unQjZxvxfabV6K729k6pUmJ6WQnsDw88IA/+8Y/y0ksvyfZt26W+vt60rr6+PvWZ9RmZQCqV5ZVGRj19PUYulAU5sWaBpFh7nb7fP7O27aybrq+/zwgOM7NCTVSIEm0OojviiCPkxJNPlMMOP9yIrlr3lVckmhqmJ+W4JkY9LuxPf/b9sS4OBILQiuM9TugphjduNCwzDwdK5Q9/+IP87ne/k+eff162bNliTv7uzh4jMIiFa9OanJFElojKK8vtOOd4HX4uJAMJ8tm1MW7eyY11pjeTEFJ5QoaUgaCB+XUQXF9/ryxSTe0Y1dyOPf54OfbYY80nV1NXbQRoFw375/czbHd8LBIEgtCK5EWO6zHgh4Qj7DL4YltTk2pl7bJRzcpv/n/fkNdff90IhH0QCQIZQXgejSzVqKETUZooOJ+FY64lcRwy4jPXO8FxDsdYEPZzHLLzcnxfSVmiafl+P3+WBhYguMNVW0Nzu/jSS2SOBhgoo7xcgwdadC4gSzWDLjyKCCkiBILQiuhl7vajJNyRI7Wm5u3yxOOPy6233ir333+/zGmcIz09PebUh3AgBicnCM1JqmRgkIwgnQF1ypdoSkZ1dbURk+1TNuHa9Db3CYFRjpfF2s8zLVGv4TPnseYeBkrU6a/1Y3Jyf5AYxyA4J1q0vwMOPkDe8pa3yIUXXSQNah5Dark0kSC03f6azMQTg9Bm4lsb5z0TbYQEBlTRMk1FG3XrjiT3C9Pypz/+qTz77LNmCkIsvZqOUaYk4GQDcUAaEArE4uTEcfbzmW3Ih+Psg2jQtDBPm1T7c1L04zwC1xEFhZwgIkjJCYx1WiifMhEnsTLN4/DzWPv9cp/US9nveMc75K8u/it9nnKNjtbq+eTKJX6/8sqhUV7K9vrZDpl5CAShzbx3tlt3PLxhGqlVVCmJDJh5+aqmWdx5551yzz33yI7tO6xMNCvSLtC8IB4IAtJh2/xemvcFSVEWwn4EsiQSSrpFY2OjzFZzjzwyCGX+/PmapzbLtDbO5b6cBLs0N61Vc9R8IaLZ0dEhr776qp1H8AGyg+ion4Xrqc/uK0VoTlIcr6iqyGlw1HnK6afIpZdeasEDrjWTVv1zauha2TyHPwvnh8xcBILQZu67G/XOIQE0Kxo4glbT1dEtGSWo7333u7Jq1SrZsnGL+c3qNJnVNDDL4k9IjOuIMjqBsHYiQvup0aRY9ZTJkiVL5IAVK+RQ9V/tv//+gwSmxME5lUounR1dRiI5zSpLltxjVXWlZPr6VWPcYaQIobZoJJOUkGeeekpWr1kjW7dulR60zIpqu1/uJaeNpbYhYoiO45AWPjdIs7a2VnjGCy68QC655BK7T+6ltHww+smzBamN+pWaEQeD0GbEa5rYTXojpZGj/ezQpNR//ud/lmeeflpNT/VfaTSThg+xIDj52aZhG2moFuMEAYlxDJI65phjLB/s+DedIAcfdJBpY2hWHCsrI4qZkINZiIOckXsIuj+5DOkGpbvRINEAuff6hjojw5eV3B5TH98fNX3kxTUvyiZN6EUD9HvjXtkmbcSfmTWE7OYyx+cuSBJ23/e+98n5F5xnGhqaHeSY1kb93mI98xAIQpt572zMO+7u7bIGWlFWaSYkWsq9994rX9foJaSEjwzTi0bPMXoQmUaD1oKZqX9OEpih5VXlst9++8npZ5whZ+pywAErjLRIm+D4cIE8ENei2GYfC+W65shnNCU/30hU6x+uKUE69FCgW1Sn3u/v77tP7r77bnlcSY6yulXzhAQpC0FTYz/Cfic2jlN2TX2N+dYufdtbh5jDJOpWV1UnvSXs6vg30xAIQptpb2w37renr9tIAkJDm/npT38qt9xyi/W9hLgG+hINicaOVlVTVWPE59oNBICJhlZ2yimnyDnnr5Q3vOEN1qeypjZFYMofkBDXmQmnZMQavxdrJ8nduOUhpzjRsZNyXKiLwAb+OgiLQMavfvUreeiBh+w+SDGBsNHUWPs9lGY1TZ7X/H2dbebfO1E1zKuvvtrMZnBQJpQ+7ToFbiEzE4EgtJn53ka968xAn2leLz7/knxX/WVr1A+FyUliLCSFqYmgyTgZoblketTpr+vG+Y1y1llnyTnnnSMrDjhAtZYqu47O4ZAExALplClRpGVXncMz/YN5bHad9r1Md4L3DvDpsnyb85ASvefhGl+mNwlSQGy/vO02eeSPD1vgoGlzsyYCayBDehNiV/Lj+SBqnrdbCR/CrlVNbeHChfLhD39YjjzySKlrqLXO7aqnevWxnmEIBKHNsBe2O7fb1rHDtJdv3PBN6zS+Qx3uaEv9qpmVKiHRKR1y6O5MopVOUovmL5J9Fi2S//bZT8myZcusDyVOewS/F4QGIZiWp6SGRsPfcEJKdz0afszP97U/D5+R4ef78eRYQjRuojKyBnznOWnPPPmMmaK3/OTndhmjiSA8K8/Ym0mSgvt1P2VgMhNJJTr7wQ9+UM48+wypq60Lk9NQm5n/gtD2wPfWr9HDkRo2VIR2hGZloisihJiQ5VVJCkV3R488+vCj8pWvfEU2bNhgppf7pKpqquwya8zql3JiWLR4ocxfsEDe9a53yfEnnKDD+czOmXoQwbgl4SbYaURR/S633zU1nlcz2mx/mT6f12vPm70H5aAhWlqWA5OytE44FvnTn/4kP/jBD+SP2v8UqVQTkvL8udnH5ypNY8E0hfAgtmuuuUZOPvlkmbNklml01J0ejig0N5DbsyUIbQ98P2MSWpYpbLBEugNlG3NLU4s8pakOX/inL0hLS4s1WjQqCI1Giy+Jhuw+LhosPqXL3325ZdXP0hyyWbMbtThnpKThjxsiv3wXhIZmhEmIpAnN68ko2SJuDmMmJzLMFPR6skd91dzcYs/8i1/8Qm775S+lXQMKaKkQGs8PHixoqI4NgYcFSuof+MAH5NxLzjFNDRzYX1GeBBiC0BzhPXcdhLYHvpvhhJZuSKaxKKH1aQdu69KTvf+OHZ3y4IMPyre//W3ZtGGTNV60D8xDXEK+zfU0UhJgMStJYSDxlHyx3p5sCkMqPwsCyLf4PaSDBpCsE+xARolHCRgZgISy27n7gMNTZLbTLaoml9Eytiupb1Qt9avXf1XW63BHkDzPPkiQYsEQNDWes6uzSwl9llz3yWvltNNOM4JLP7//OOTuIzb2OATK/qfKHndXe/kNDfcvDTc/+YzGpTaakRVk9swzz8j1119vI2OUl5VbUADCoBHilEcTc1IjQni8jk7xiU98wjp0V9VmNSAlCRqwd+RON+Z8vRIjZK0DzYiUkYoy1X6UoLo0YFFVqT0ASO7VXLZ+7lsXxJ5V12huLKV6LeKk5us0sZHfVltbo0udnHTiSUZczz33nNULDmDAGlMzo3lz1EGkE03umWeftigoY7B5WgoRUu55KjCxh4l/eUEgNLS8wJjfQsbS0My5n9VayCmjq9CnPvUpad6mkUxteDQ6GmlFddJo0UhojBAE2+95z3vk8ssv1+QzbfSkK6g4iSUf7P+E/7mPLK1ZWmHuOlMC27z5dblP88n+rI78qtoqmT9nviXr0l1q2bJ9jWhcmyrxaKori9k15IgMuhSTAxqrsGABx0uzJnlbe4f85td3yg9/+EMhUReCBxPMUCfXupo6I9lMeZ8R2mc/+1l54xvfaOdSFiQYhGaQ77H/gtD2wFczFqGRi4WoR0y2bW2ytINtOn5/a3Or1NXX5RopCbIIJEf3H3xEF154obzzne/U82q1MyZaz2D6BSZnhY5lhsY0GRmJ0Ix8+pOCN+lQ3d+98WYb2YN+nJAE/izMYLZnz51taRRokfvtt9S6KhkBVSa+rMQXOHiHKevTdlpwM/sMZppnB35s2tJsQ4YTMGGwSrQy7gviJI1jQLVDtruly0hs+fLlct1111kOHvghYXYaDHvsvzA598BX4yYnGs4QcxOT0HLH0CpKVSPbLmgRWzZt0Uz6Hblhe8i3IkHUGytm1YoVK+Rtb3ubnHnmmdI4p1HKdFhryAwCYcgfhDJNsmSQfJjIf6cY1rrkPiY5bJvXb5JvfetbliDb2625YvjMlOwgVMi6pXW7jpT7sty76l555OFH5NXX1ms5SnRKeB1t7dr/s9o0MNJGhmpMEPhgGgkpHblcOb2HiqpKWbBwgSxdstS0NMgUjCA2CxgoDgQpGJmjr7dP2nVEkrUvrZMT1WRtbEjI1rRjx2ki0MQ1U4pAENqUwjuxwgcJbWRmSfo79si/fvtfBb9Q07YmM4dolN4w8Z/haEfzwIwjJYFs/yXLFucaOX4myrL+lE46VDlyteN4GC/ML8kWmLUN7//9/XLXXXcJw/9AJpWlahKXamdyq1ivzQYxICv6iK7fsF5u08TZxx9/zEzCwzUJ1iRLaIOkBnIQWkLMenlCfFokuDBENxOqLJy/0Mzb1atX20gf7lPjHMxPykDw8bGPzvHHKHb4JvOhwVrh8W9KEAhCmxJYJ1coDdIGS9QWaQRFy1TpUrNMFQob7ueuO++yLk30AKD9QQzuRK+uSYYBYh9D93zuc5+zoXPmLJidkFXSXm3byIzi04vVNpl/SQVODK5lsoZ8WjStgmGLuG8jESW2jGqUZiLrPkxK7p0FDaq3L+nG1NTULA+rxnb7r29X7bLPsvy5Huc/tw9maJ3sQ7ge3yDw8ZyYn9Rfqb5FoplvOOYNlqvGCB+QP2TGca1Zk5D7te9ovbSplrataZuZ7Sdojh55aR5EsEqtpuQ52Bwk1+yBWE0rAkFo0wr37ldGo6RB+pqGXVGh/TC10a59aa3ceOONNl0cDZE8KY7TmDgfExIHNhnwn/zkJ21Y6obZ9UaGNO6c+Lavcwcmu5EQWprIKNE/z5szz4b4XvP8GusMnsHOVJOTZ4BUmGSFbRZ/Hq7nGJhgTpM8+/hjf9JnLZX9teM8RMOglGW6hkg5D4JnbQJRqqkIRqR0kKaChkgi7QM6igc4IsnxhPioD7Lr7uk2Tc5TXcCW9wChOYGx9ndgBcW/giAQhFYQ2EevlIbhDdEIDTVDGzxk1Ly9Rf7f679iXZvwP0FmTno4tG2Qxq5OG5eMHDN8ZrPmNWYbn9abcE1yA7T1vJMZRTuh4QPMEopVlVQG4R5x+BFmCldVa+8F3d26o8U0s0ZN7NW+DzopsXZw1/MgKcSfkTXpHd1dPdKsI+E+++e/yLq162T+3PlSVVNrqRcQF4EQIrpgibifEDLDr4a2VttQoyZkpfnUntYhlbgGAiOWgnnJfWG64+MjYLDl9S1yquan+ci3/dnojJOa1TPkF8Oqjn/TiEAQ2jSCPZ6qvJGwNs1G2yWOf2Zi+sUtvzDtwzUzJz80B7SSufPmyvnnny9XXXVV0qlciYHGaf0x0w1O902NOKElFeSehZtQgWNqNcq6dP9lcsF5F8jb3/V2ueD8C+ToY47WMdDqtfN4rzr/26S5tUXqNY/MxcvB50XUE+LE5CbCu+a556VGyXHFshVSpkNro10hhl/qmSEn8IL04F0ItaGuwXyNTzzxhOWm0YuBcwgQIBAjREdf0M06A9ZJJ51k5XOc8/y+fG0Xxb+CIBCEVhDYR6/UTSUarjfIds2jYoTZG752g5lrNCS0CBqun1c2oCapahInnX6SXPWBq5PUDJQ7zFfMrSyxMeY+3DJVDTCh4KFsaXXpLvOr6Zr7YSgiIquMDkIkdtl+y+TUM07RblgXypv/6s1y+BGH6TyczbJp8xbBL2iaUlZ7xUTE11VVWW3R0Q7t3vTQww/LDk1dOeiIg3N5ZmitYIWmBq7larYjFlGlLK2fFJaDDz1EtjZv0wDEazYaCfeLr4w6ndjoSdC0dZsce9yxlgZDx/00oSXpKoNR1tHfchydCgSC0KYC1UmWSSNxE8v8Mjp0Dpnz3/zGN2XdunWWK8VxiMPJzIhPo4hL9l0sn/rMf7MBGdlHWYg5/4fdl5HMsH1T/dHuM6UxObFaeoUSHaRTqflmZPgvXrxYLr7kYvUBHmUTDL+u0UYmPyabv0YHYkQG1HmvjGOBAwho3dq1smHrRptpnYAIJiNCuWDmmluZ4gKZEUQg+ZZhkxhp5PkXXpCNr23MBQk4334MIDgtA4Js3dFqXaMgRy/PKkHlUzGNOtkR/6cZgSC0aQZ8d6uj8WD6MOYXo7Q+pP00f37Lz60/IscwuciVopFKJonMzVNT8yo1M0869STTvjxL3tbZis3szLq1pozQknZtWuBIz0viMI79JI9MzzBlTjUb1SAhD3ZAwNX413R70T4L5c0XnC8HHniQtKspSp/MDtVYMV0r1YcIaVeWa9eu7mQ2p+b2Zuu7SVCE7kyeFJsmeOr0pGIw6enpVTO4Xg468EB5+PcP67wG2rlfic58cFpPTXWNBQcgyPUb19voJPssXpTL/Ut+OILQRnrf07kvCG060R5HXa6hmRamWsE3v/EN2aKmF6YWhMZijmsts1SjdQ2zGuSUN71JO5u/V0rVh2TnZPsoukOc6sk7889TRmj+nEZU/mHoGgJI1w/BZUo02on2prxg/imCIbpUae8FNLh58xbKeStXGkmtWb1GR+Bl7oEkGbdEz8OHCBFuatpkpEcXJ3LvyMVLjmUjnwQqtBrXWrkPOvpXWmR4nqx5drXh19HVocEHUmWSSVcwlzmXYZia1G939jln5Uzb5Fk4A5Mz+4sx9JHj0zQgEIQ2DSCPtwrN81ftjEanTm+GBHrySfnpD39qWkllSaV1E6oq07Hv1e9N7lZ5TZnMXzxP/u7/+YxU1leaExsCIELofjMasDVi1TpofEkDHO+d7eb52bp2dTYkPfwPbbSspFypQM3rkkR7M59UdpBGiAJTlB4OBxx8gM3g9PJrrygJ9ktbR5t09mh0Uq3LAcWkql8nIu7sk61btsrTTzwjK885V/11SZ9VtDhmewIXSNPxsZ4VWgfJtyecfJKs+sMqaVVtsFtTSNCGe/VHpVcjq+CGNkeeWp8uJ+u5VhbxA3xyvJSQgiEQPyUFg37sihklo0JNHGY0R9AUujWdoaKCdIRkwhH2YwZdccUV1vB8dAj2F6vwvPjHPv8P/yDnnnuuaV+Qjpnf+tCkfWCK4l8ky/8LX/iCbN6wxUxMrkU7BEsWvwZfGGRl+1T7ZbBLOu6jtXGM6yqyfUnBFbP34YceUtN2s9ZD3lryfooV85nyXKGh7YFvCq1LDTLLiyId4YYbbtDx/pORMjLZbHd6EWF+1ulUb0Tdrrr6KmlorLcEU7SfmSw8f1r8eXwN6UDcaGwnnniiOvMX2wxQ7Ce9orJUyUxTP9DqwKipucmc+UcdfZRpr2hUrqEmvi9VXpWRnNzoK7pUx4pbu/Zl2bhRAwRZs5NkWs4hd43gwDYly+Wa1Lt0GcMMVRlRpu87tqcfgdDQph/z3aqRxkgy7e2//nUyCgXD4KhYVE4bH+OIoTHQ15GhgGjMmG3FITzr4AKR2Z8+N8SDtoSPEGc+p5EX9tGPftQiu/jKEKajY5vzSZilLyhT3xEhRSAmJzPbof/8s15ieL79ssvsEJ/R0nwxLU6vJz+NvEAjxyQe4EXFukAIBKEVCPjRqiVNDHNpraYg3LtqleZMYWYmSbMDpeq70b+uvk6pqauxrjuM2UUeFyRoRDha4TPomCZMMJ3LTncMgUAqRG/JfZ27cI6cduZp8v73v9+mpAOf9u72nKkIoYHn977zPcvlI3LscwVQDosLpIZvDPI68qjDZKWatAQVurT3BVox5ixkCKlSLj0MnnjyaWlr1/lNVVJFeZGxnkYEdv62TGPlUdXICNDY2jRR9JFHHrEkWqZwoxFZQ9LcJxoTC/NT4juzMfrxAWX/Ri61uPby/LkUFOUjCJ05RBlVxPPPSO3A5ISw0Ojwp910003Srlotmi7CMdOwdNuJslwDKkQ9e7Rr2RWXv1MDDkk3Ko7zwwI58i4s0qz3cY9qafjaEGaNDykcAkFohcN+lzXTzxBfECO6kktF46ERufAZc4eUhOOOO86CAaZpqPZQDLIrzSz9bJCJ59n1aj4eUd26WbVyyhmn6nR0Z8pCzV2jCxQd39G6IDaETu2/v+e+RPNTTuPHAknww3uXEFK/BmTK1aRfccByOfXUU3WEjiToAPYIhEpwpkv9a0xMs05TRBgrrUJ/WEIKh0AQWuGw32XNjMP18tpXrH8iDRfNABOIRofQQNm+4IILZHubdurWzzQ0NLS9RcDD+NsfOcvlNerQ/8SnPmFDC4ELAlZEQVlDbESNN2zYaNoUqW5g7ETl+IE5l3cqYRFJ5QeFHxGIjIAAZblGt0kDB6t1XDr8mXvRK3Co9qh1EFoBXgeNhwaRbkS+j9tpqG+QO3X8+4baBunTvCkaE43TMtfVwVapfQj31XH3Tzj5RB1JtcGewBtvAR5nyqokQTW97FQR314ltPSgi2htaFmf/R//XTu/L1U/I/1FddZ0JSEixJ1tnbJx/Ua55ae3mFmJ2Zp+D5j7vZqsS3oMAomdfvrpcsihh9o7gPwa9f3Q3YoyubZWexH87q7famS1XxNxE7Lj/YZMPwJBaNOP+RCfjVfPr73L5vVb5LXXXjNtggYDWXkDYRsn9dFHHy2zZ8+2xso56eu9nL11TVenuvoauewdb8MxZhihWYEdXauIdD766KPy0vNrNQE3SZY1jLMmu41Mm/WJlSlBdnd3yllnn20E5uQItlzjn5t0KCOmzIv3UNhvXRBagfAf/sXnMwvk9NILL9rcmpZzpqE19kNoLGy3trfKGeecqY1T0wk0c96PuzZToEfKW7Xjfg5+C1KL6lzme8QkZ6IVtCy0XPBj9Ay2CRCQxgHRsTj2yUPwA5HEi9HI+AEh4DBnzpyceUpZ5foCmEOUQAAm7DNPPiXdHdpjIaRgCAShFQz6xLfj1UNkCL/6zz232iKY7HMS8zUNb+HChXLYYYeZX8jP8XJijTWohKTfbIiMHL3tO7YbrhBXpU6UQqSSCVLuvffeJC8tgT6XxweVGflpOfZeNBF3n332kYMPPsjKdPLjGITnpufjjz8u9bPq4xUUEIEgtAKAT4NAfJ2+BbSHxx99QqrLq3NpATQuM280atfb3ytvOPYY7RVQZ/vYz+LCuXu7gBGC6YmGRuItPQsgHwaZLdHRSXQINg26rJHHHntMTfskDcNxI7yC+os/LdHgkigpWhqpMo63kZ1exGdy0l555VXZvq3Fi4l1ARAYbAkFqHxvrzJNPpAbDY50DRJqiXS6cB6LNUhdn6bDQHN8+PWcn97n1+9t63JmY1fB9OxQPN9z5ZXafSlx8rOfVAuE3DUy/ZlfwHFLDE2OZn8Ysj8+BF+OOuooI0nX0Fj7DwrER/9OJn0OKRwCQWgFwN4bT1pDYxsHM2S2Q80hFxoM57OgETC+l5ubXONlpc/37Rm7hksmoGhCYCwIxER/TtI4jjv2WDn88MMTzUrLZdggBnREGyaHjFncXUh9ScpJbsAJDqzxoe2nfTfZ5r2UlShx6vAe/STTatSzvb1dXnjhBS8q1gVAIAitAKB7lTQMF8iKBrZOR6SlIfovP8d9G7OJhUx4/EDsT5fhGpyXubev0ZpIuG3RHwi0WnxdZPSXksOmAn5bdI6ANWvWDPlh4EcindOnr8akXJNrDzroQPth4ccH6dcUj57uHotIo/GFhmawFOxfENoUQO+agq+HVwEJuf/FjqE1qL+G8cCe+8tqKdXI5UDZoFZGw4Psaqtq5fRTTpeqCp05PNvDxrU3yqGRpQlueL0z5rNHLMd5wx4dLe1nVLWkvwEBgjma3nL8yccLM0pJpfrQdNy07oz279RJT0h9oedAX6cmMGuvAZZK1bzK6G6mLgD61Sr8OobagNTpHAhHHHOk6oAa2dTZ6UsqtGdATbnNdwDuXRrhvP/3f7B3y3sZ6QdmuEY9zkeM08dAIAhtDICm6vBw4qGTNZnmjJtPQ4DwfOEeIDX8a0uXLp2qWyqacsEK7EzTypqH++j8BMuXL7dn9P28A3oOvPLKK2YupgHw95Ne42sDf8pH/D2x7T86+DYpM10/x0OmB4EgtOnBeadahvxSqxbA5zb1wWzZvNm2vdF5w0D7ovvOgQceuFNZsWMoAqYZ60i2YIdASvPmzrEJlzHZHXswhXwwE7dv325zdXK+H3fiYh9Ch/b9998/l7rBeelzITjSQfhhYpvr/XhSwsiRbT8W68kjEIQ2eQzzUgJf/C7VwJhjkgZIY2DNQsPkM36zRTozUcjYCJgJnzXBmSqvW/1cRCnpJeDYYsYjOPPxpTkBDichzmEf5WC+EpiBDFnY7+VxPX66TZs25cxN3h/njFQm5YbkF4EgtPziudul0QiGCyYlJos3FG8snMf5JIri8wkZHQGPTKbPArtlOgotAZUynTeAYdbAFBIib+2FdS+atsY1kBDiJMSa83SV+1Eh4IBQBtoYC8K5kCPatJfD2rftpPg3ZQjs3KqmrKooeDQEaAgkbeKIRryB0BBoNKwbGxtNOxitnDg2AgLKTxCS9fHUbkxgy2fWaGlEJ19//XWdtT2Zpd3JJ71O3kFCdvTUQNPjOO/NF87hx4huVWy7JGSobBgy5QgMoj7lVUUFoyGAqUJiJo0s3RjYpkHQeBo0uZNf/pCxESC6mRYwBL8jjzzSdoMnC5pWp/q8lmvAoLUlGZ47fZ1vcy7CijHqXEPz4/7OqIf3CMkhrP1aPzfWU4dAENrUYbvLkv3Lnj4B5/QO1dB6sn4db3Cs/XzMJjSAkNERgFSGiJJQhY7026+BgjPOOCNHMJAQPxCLtJ+mD5SZvm4kIoKnIEYnMD+fz+4qoBtU+ri/Pz831lOHQOIImLryo+QREKCh0Oj8S08jweGPc5r9/DmR0TgqNF2Az2gGmEhVOlKqCepCyE4I+GQxjItGXplpSbqGiM5aeZZ8vuTz1uXphbUv6IxZx8mlb32rLFZSq6rJ4rpTiUN38K4YgYN3Y6Sn74/3xjakhi+UaCemLMJ7DlIbiuFUfQpCmypkx1kuJgxfeubhHNBBB9MNwMmNhkFjCtk9BMj2H1CtjIRbUjlYIwxdzvR3nb1dMkv9kpBRlQ6aubvCe7AfHr2O9wSB+vtibfuU2IzssoWmt3e3njhv/AgEoY0fs7xfwVA33iC0Fdi2/+L7mgbh23m/gSIrUF3+9kT0FYDUnExcn52zYLYGXwaktqQWuJX0lO7wuamm5VrzaJD4u+Cdmfal/TjZ5+8w/Z7Y5/WPVmYcyw8CQWj5wXHSpaQbAQ3AGwENkoABpkx6BI5JV7iXFeB4+mPbBCvZD2m8/fhoa94VixMaExcPJy6vz0lutPLiWP4QCELLH5aTLskjZzQGCMwbDtsIgYOQPCCgmpgqTiamoalqBvE4KY2lpfFeECctItNOilybfo92YvybNgSC0KYN6qEV0SjSDQfSasg6kf1MGkk50Tk9l23PbPfjsZ4gAmpmQmQuTkb+eaw1wQCE65wE+cw25EbAwH2i7AuZPgQibWP6sB5S0/AvOuTWoA7qMl2njzEGPgKpYXLSYELygECKZ8A2jflYpdPvM60tp3+cKIcEaAhtOFGOp46x7iGOj4xAENrIuEz7XgiNTPaSLKGltTdIjEZDOgBLSB4QSGloYO3aFjiPJfQSgNAgKBa0a65314C9x6wK6O8xyGwsVPNzPAgtPzgOKYX0gPQy5GD2A+kX3ni0WUhPX7fMntOoOWdqYurnPp25m3VZZXb6NW10G7ds1lQD9aMRmUPDYNEIm611RXnRcHRW8+yfv4Mc/pDYSEv2BEgJAurTv17901k3FVoWlSzPaRaI/PnpP+vcnI1SojOll+vYa477gEZKMzrg45IlSyyQk34Xw7W1bJWxyjMCQWh5BnQ8xfEld+HXnaFt8L/4fm8ErNHSiHZu1T6HSLqxDGS1Cj/fy4z1xBEgujxEsh+ZUAXtDH+ma3ac56SGqckAAqGZDUFv2j4EoU0b1DtXlCYuGgCmCuPWp/dzFeRlpKaEtn79erGUKVPRhhLbzjXEnnwi0KcaWXNz86AvU4cT0sk59f2gGScqHO9wwYIF9gPEe3MtPJ/3EWXtGoEgtF1jM21H+NJDaGhozP/ItpMYRMY2GlqvEtorL79s92WkB9HpuU6AHIgGNPnXhgvARRHO6WoEZRjrDOEdsXiQhneAls3wRGjZbPPe0jL8c/pYbOcHgSC0/OA4qVJoGAiNgDG7+OL74gXTYOhIvVon9ECMxHRf9gOqmu3zspID8X8iCCg16WXJO0m/B0YUZh5P9jmZ+Tb1MHgAIwqzRnifLC6cGzK1CAShTS2+I5Y+0hebfeQ3HXzwwXYN/jJIyxd2dquGsPq55wYdzukG4uQ2Yo2xc3wIJMRDD1BGvuUdYFHWVlbZNHX+/lizOHExnh1DdKMlD9eU/Zrx3UecPV4EgtDGi1iez09/0TE5mT+SCKj/sqcbBybndh1ri7k7mVtSW5ppZn5L6bJ8X6wngkCi+aKpZTTajBAEYAQNn3fTSE5ZLnkFiXbMaB0HH3qQEaDXynm8Q9ZIvCNHZmrWQWhTg+uYpQ7/YvMZIvOkTLaTRpNoC94g0NxefPFFdUxrtnpaQxuzxjhhPAigndFhnQQcUjaIbJJ/ZkEZxd3fh2tifGauATQ0xI+n3zNmqu8fz73EubuPQBDa7mOVtzP5UvsX29fu+4LQjtWZvmkckBcNgkaDhoDWhhP6nnvusWMc14Jy90VZ3sByO2Nj3Agko3Qkvi/w7NdcP7TnX//61zbGWTLpSpe9EyOsUv3R0WXevHmyfPlye7euYfNO/N2O+0bignEjEIQ2bsim/oI3velNNtij+2ZoELZo42AffrRW1RYswjZMS4vGk7/3Y9qZ6miQGoNvvvTSSzbvAxiTb8aCQGoQHuOsletgnCGFQyAIrXDY77JmhoN2P5r/wkNeGW1YyIaNG+Uvf/5zMpyQklzIVCHAnAOl0qXBmjVrXjDfpWvLplmrH7NEc9EgOAjvxJN10MjOjqm6mSh3NxAIQtsNkKb7FHLR8MXQaPj1N+1MG435zPRzow4l/dvf/ta0AvZ5TwHPiZru+y3W+jA1kdqaWrln1SrbTkzQpIuZkZruZc1MUPuruYmmFlI4BILQCof9Lmuuqa+Sk08+2RI0vYsNJxPlREsjwZN8qNWrV5uzmuRaiM39NrssOA7sHgKKpf14ZM9+fes2eejBBzXKydR1aoKSeKvaGT80/OBU1dbIG44/TubPn2/ktnuVxFlTgUAQ2lSgOskyu9p7jNAgM4RG4yYon/vU/MR/85u77pJKprWjAaqWYEECTgiZNAJoXWVlJRrZbJcnHn/c5u1EO+NdgD1k5oK5efpppyUf9bqQwiEw+FYKdw9R8zAE0LTIOB8e7aQxMV5auR5nLslHH3lEXn311VykMzS0YUBO8KObklwOcd3xH/8hFToRimtkHOddkM+Bj+2AA5bLwYccJNX645Ih8hxSMASC0AoG/a4rLi9Pht8+TX/1XevyFA40sX5tTORFMdv3I0pqrZps65I0NP8U64kgYFylF3Z398pLL7wojzz6qHToD4gTnWtqrJmq7vAjjpAFam6Wqebm50yk3rhm8ggEoU0ew7yVQGNgyVT2S1lDqRx3yrGyeL/FUlKZTF9XUapjpXX3SWlGtTSpkAEdGu1H3/2RpkDpazSFQQMEOsKtjqaWWzSDLbeNRtHfjwZBtDSJmObt5mdgQZkBcFJMdP5O1r50d3fZ03Rr8vK3vvEtqauukYqyCsn09tmcqP19mvk/gGlZKtu2Ncv73v8+i3YyZV5/aeBayK9CEFoh0d9l3UleE9HO008/3SbItQmHtfcAfjU6PxPRZLupqUluv/12aWvZYWZQWkNQerMayHj37bTvZ5fVF/kB12Lpp4noz4jhA050dQIjegU89qc/ydpX1tooweCNSY9WBsaUgXZ27gXn2rBPHANjjocUDoEgtMJhP0rNNLFkaJq36qzeRDUJCrBmvC0aE43OzdF///d/N2Jjvw0npCWjPyQ6hDq3S9QUys4gnlTKa997X72TvvKX4QzWpdpvkwWcWDrau+SOO+6Qdu1wbsOeK1z8gEBc7kvjR+bCiy7KBWx4axXlkVibfMcK83/v/VYXBu/dqtXMoIFEI1ixYn/T0iprqrUxJa8LIkMToHHRqLZt2yY/+9nPhvhvbOLcYbV5Qx62e6/9yA8AC+KaFxjtUBK7W/P8HtfoZofO4UBumfcMAHuWCu0RcPhRh8thhx1mmhoaHBoafyGFQyAIrXDY77Jm0xhKVBNQk4jG8+53v1tn+k5GfWCWb0ZHZbQNCI0G2NzcIqtW3Sf33XOfdLS263HVzdDI+hMdjYo4zxvvLiveSw44DmhaTvJsI3zeunWr/PKXv5Tujm7zTzp2vZle87iVamQTs/+yyy7TpNsau87KUg2Nv5DCIRCEVjjsR62Z0R4QNIcDDjhALn7LxVKlWhrRTZI6EUwg9+2gqf34xz82AqTB0gi9sdrJ+m/4Z9+/t62d0BwPPrvvq0Ujxt+9+WabuwETH3F/JT8gmP74zo466ig5VaPQ9Q119kPBD09I4REIQiv8O9jpDhjnwX/pvdG94+1vlwUL56v5U2nE1K2zP6GIlelExKq0SX9fRh5/9An5xS23mv8n06vOa0ZeRUtjUY3NFtPadqpyr9phwQDDTLVdVXyJWLJv6+tN8tijj8sTf3pC2nckfTIhOsiKHwzMTsivtr5GLrn0kmRwAN6V/niYtqxeOLTrkMIhEOgXDvsxa0YPo0FBYg2zGuW8c8+VUs1R6+tTLS17jAbmvrTKqkr5/vd/IK9psi3Z697H0zUSrklv83mvlKybCyKyQKcC3dvTJ5t1voAbbrjBcs4wIfGdeQ8NjyxDbsccc4ysXHmO1GmApq83cQW4yYrWHFI4BILQCof9LmvOkOekv/SQGfMIIA1q2rz1r99qQ9QQIKiqrTI/Dud0dnTp8Nw9Smzl0tOdkX/4X/9LXt+8WXpVq1D1wcpxH5z1+/S5PHd5B8VzAHMxJxAZC78UuuYYuHVrV7Pt27bL177yNWlSLY0fA3CFnPwHg/dQWV0hc+bPkY9/8pPS3tFpmll5hWrBlEm2hi4R5VQcCihBaAUEf1dVo3EhNCYaFguaArMJve/975U5Ou8j+zhOo6xvqE8IUNsuWhk9CH7wgx/Ihg0bpFMjdmSwI94tx7Q0vdbWdqS4/qWfy7HkCUnTgHxsraQGGaFZgeW3vvUt2bJli5mWaG6ucbk5iWbWrr0FPvShD5lmRjenUu3rGbJnIRCEtme9D7sbfGI0PBpVsqBoDUhdfZ2OWX+InHveeZZsS34Ufh265ZSqdlau9lO/mkBtGul89OE/yc3f+Z5UVlRLe0ubReuM2GjQKTJLN/49EIpJ31L6+dy8zO1TLLZs3CI/+tGP5L777pON6zfqNJv4JNUU1QUNDbLr7OmURp3V/jxNoj33/JUanKlU36U2HfjMOS29Pem7jgImikAQ2kSRm8rrVENQ1jGTJl0NjQst7V1XvNMin0mSLWSXtCpMVQQSJPWAPKqvfvWrybRqrk3oqRz3a3ydrmemb/szOXGBW1rQrMBq+7YWefrpp43QMDO5zn9E2EYrRjA3mQ396quvth8Q9lEm2vHwsjkWUjgEgtAKh/3oNWuDGtAQHIsLfQVpcKQNXHPNNTaHJ45rS/zMmqml2ivA8s80qrlx/Sb5+c9+Ibfeeqts3rApZ3Jpy4UFc6SWK1836CQ104W+mSyQkpPUkGfSR2ze2iwPPfSQEf4O7TZmkU7FFlFdV8oGtLes9t8kGMDywQ9+UBYtWmRYQ2KQpRNmrmy036HcmTsUG9ODQBDa9OA8oVq8QXIxjYfUAnoRQGj7LlsqV77/Siu3dCDpYwiRuWbRr53UITomW/na174m9957r6x/5VUzSbWwCd3PTLpIkcjdrhMQOyCczRu2yAMPPCA33XSTdRnjR8LJCTOTQRxJXsZv1qsjblz53vfaiBpMYIO4Fod/ju20mLsgvSO2pxWBsv+pMq01RmVjIoBjH2JCO2ONkHPmjTSjOWc1Oiz0fsv2swMvvfCSNjydmFgjozTCnp4OqdPjaFvtbe0WeXvqyaekRkdWZd5P/G0oYqpj5O4lqYfo6mA9uYMzcINnAw+ICkLj+UixaNG5Ne/8jzvktttuM5/ZgEZ8ISXMy94uTY5VwrM5T/WZZ82ZJSeeeKJc91+vM5OzRBOajfhgLd6HOeWGggOiI+weelJ8mjIEhv68TFk1UfB4ELDUCr3A/DM0SG2ctp0thN4CfK6uqZIrr7xSDjr4ICW46qHn9PWav6c627uAWb1v1gz466+/3nw/+H+K2QcEPpAPRIYmxZrgCVPRkWvGDE7giB+SY9YDI4svI27gN2NI7U9qigbjz40klG8ElzqsRYUUEIESfSGp11HAO4mqdxsBtDCimwjdc+iu88UvftEc3Nu3b5d6qbVGzIulRwEjftGonRRPPu1E8wkt3W8/aZw1S4fMSUaRGPwqDAYN2EeDn07Jzk2iqs7IX00M75EF6lfyJ0qp98zzon2R9b9RZ8r68Y/+r/xeo5kd2V4A+M2Q0v6hv+ul9f3mn/z85z8vS5culQr1oSWSaHyOx67uYnrRyt5arAyBMDln4BfBGxQaFg5ryGrx4sWyWZNp0TR2NO2w3DOO19XVSkb9QWw7qaGpPP7EYzJn7lxZsWKFzVHASB6Um5Q9OGFx2kcEQXjdUwqbMgIciok98t/OVALJZ9RvaGagXutEvE0TZdesWSM333izRX2bm5t1GPMkz4+yESc2f6alK5bIpz/9aQsC1Km/EuwSHBKTcywMklK9tFhPJwKhoU0n2nmsiwZMw4Jk8P9AZM/pBMT/9m//Jn9c9aDVBCl4Y6RB9qgZilTp0DdoeNVKdiefcop87GMfk6rKZOJcctUwuSA/SAEnOde6RmgFTPG/nekqqdCJwsmKva51GuH4hXoi52Bm/+q22+X7iglDLIFXRWlF7prhROaa2uVXvVOu+8hHLBHZtDztbgYew8WrG77f73P4/vg89QiEhjb1GE9JDTRga8RaOqSFpjZnzhwbn2vNc2ukS5NuW3a06oQqmiiq2hfT30F8XJPJEDjokbaOdmnTWY0eeOB+WbxkX1m23zIZ0E7tOiKkBRcgBb+Gh6AeZCwNxU6agn9OFNQPobvpzededfhnjHzLtafEVlmz+nm5+aab5f+qmdmlQ2oP9A1oknGlPU/uObIamt+qE1xPf7f5z5hrs0ojxZQPFsjuPLvfp5cb6+lDIDS06cM6bzVBRhCYCw3UNQg0qvWvbZSvfvl6eebZv2jyaJMSVLmNiw+Z0bsAh7f1LjDNiy5VtaaJrVy5Uj5w1dVSN7fO0j0gM8QbM2snUa97pDVhjHzIzsQw1NdlrjR4Jntiy/ZWnbu0X/7jV/8uP//5zy0lI6NEZz5EHV+O+0fjcqx2dY/l1SVy6GGHyf/43Odk4YIFOR8axEgqzHAZrqntfN/Dr4jPU4VAaGhThewUlusag2sLTmhOdPU6s/oxb3yjbN6yWZ5VMxTCIpegq6dbk0U1adQCBIn2BQF2dqLBlNgoHQ/c/0cpqyq1rlWQF+TnRDa83l094liE5r6rXV+fpYjhTOHMpWtmNXeNaod29WrSQS7v+u3dcuO/3iS3/uznOpmM5pGpJoqgmUFk3L+ZkPpco0lLW4tpo1vVTD3uuONyJFauQzWBheO+qzKC0HaFzNTvD0KbeozzXgMNyhsna9c80KgwwxhRtVbTNQ4/8nB1bO9jpNarWh3O8Iw2yB4dYYJrmMWoslxNKo32ZXrUnFSS6GjrkIceeVCeefrPRhrz5s2XGp31qEtnQKKfo+VoQTSjLIyqO5qMRWg2SBkVZKOQXpYRmO7mmRl5jEmA29o75MH7NUlWiew3d9wpTdoDQFRLqyzXceP0r0w1sz7N2yvXHhTMrcC8AWPdX0VlhY2mgek6e85cw7BWc/g0tmK5bGWKb1ogsPSSPhbb04tAmJzTi3feamPAQbQnxLUG1hAaI9riO0NeePEF66jO6Btbt2yziYqZhg1NpapMc9e0lTI9XqmSXbemgKC9dZd1KYlpp3aNhu6nqR3naWf4iy6+WBbrLFQVqqWMJf2lg921Rjp3LEIb0OnlTBiUMidKYcaTSfLwps2vWwrGr351u7z80ktmInd1kp+nmqf2nKjSoX5IQCbyCdv4fAzt6jes1M7lo0l5dZk9OyNq4EMjd2+FjhpcV5cMt23sNVoBcaxgCAShFQz6qau4V+flRIfRjjlGWMxgxKCPP1EHOb6lWfWNFhSgyxRaXYnyD1yBlmEep9KEUFz7404b1IxlQhCm1WNZoL4l/HF0luc8VX4Soazykc0yJ15MZLsmq2lmr7RVYhJm96BF6rmdOrY/9bz88suybt0r8t2bvmPzYZJ/x11jaos+CxM06yWSUWIj0Rgy4/paJSIinqVK1qVotGXGjOlqh2zjc+NeWeg6tu+yJfKZv/s7OeSQQ4zwk8CKan2VO0c+3fwfUmB8mDYEgtCmDerpq0gzsrQyBuAe1HBaW9vk1VdekaeefEZ+qNpap5qWEEGmJ2ncVTr9Wo/60zBL+8vJ6aJjfBIEYI3mRlY981WS83bwwQfbyK00cpJPiQiiNUJUZdU+7NFgJHasp4fI0C7x6XV1tkt9XaO07tguG7SD/Zrnn5dnnnpGnlu9Wscs26oaZZm0ahcmnpF0kp6ujDrutTO5kjMaWn9Pr9RW16o5qnOV6lkNmkvWr93IerRfJnlqY2mQTmhOunWNdXLCCSfIpzQ3jVFqITSOMVgA9YMVn3cnYDIWDnF8cggEoU0Ovz3yap3kTu8LpznNOZswq42fvoxtmiXPBLq/uvU2eeqpp5QMunX4abpJVeqi2pqqaQNqMjqh+QNCODRahEYMwXEOGgxktmLFCiM52z74AHXE60gVmGwsGpH17lxcD0E6gfEZIkPbYw5Moq9/efbPpomtfWGNjfMPiVJ3khOns8frvfToPeNH4z4Gspn+aGg9Sqp1DbXaG6BTUdB0Fh2WnMjk9ubt0tDYYKQ7FvH0aR5e4o+EAJM6SIl580VvlvdfdZWSWo0Rpw/waP1G9TzHyHHi2UKmF4EgtOnFe1pqQ0PT3otKaYnJVqo+MqQs22u6U03Qjs5uufP2X+tMUT9RouixYACkAkGU6Uiu3jhp/Gy7tsZniAUy41wavl2j25iAbNfoJCI1lTVSP6te5jTOkVolmPqaeimvYhDKcunN9EifBiEYOJGp4lrbW3Xm9zZpbmkS7q1fNZ+6ugbtLN6pd42Wic9P9TElDRaisqSt1FRVGxlmNMeMerk30/I0j4z7QqMkAHLMG4+RV19+1UakBYfdITRIW6syLRZSRputrquWz3zmM7Jy5UolygolUiV5rVOhzknat5nbGRvThkAQ2rRBPX0VpdMmBtta0g/RiAliU+WtdUeb9HX1yve+d7PceeddRlRoSEQzXZzMuM5JDa0MUoM8IBgnOdYQS3evzmeJ/qQJulYWbZ5Iqpp9jDFGlJH8MIs2KlH5GlPPlEvO13t0nxg3iylJFJb6uA8Ih7WbexAY0U16OYiavHw+R4nnb676oMxdMFe+9MUvyf3332+k5sEUT/vwZy3tT3ximbLEhITEKAdiQ6gTX+KXv3q97LtkiZJqYm6iiZooESckN4hfciD+TxcCkbYxXUhPaz2YmkMUB/0EGShTqDDlXan2HqhSc4wo3ina/emM00+zhrtFc9fKlNDQNHq6k9mlXANjjTiRsA2J+cJn05S0HiO6bH0M0cM1kCgExJrjrBGPehKZhUDYzXEIE6FMSyTWMrgn8sGok3OsHD2Hc6srExN35V+tlE//7aflnHPOtt4TRGaXai+IV9e/KtubthsZU67XyzZS4lFVfUzKhdC8Du6fbUa23bR5ow3DRH4f+DEBjd2HPpKt0ypbUnT8nyYEgtCmCejprAZjE6XCSCS7TrahCnX0K5n16lR4lsqgw9rPXgAAEhtJREFUu9Do8C8dfczRcsJJJ9ighvBPS2uL+Z+cWFxbo6EjNF6IBc2FY4iZojraKxoa2hblqAqWWzyXjIF4B0ip4DJdIFvyvCyeoU5/fHDlqs31kWJCtr+utTqL2vIs1NetmfvUXannL9FAxdlnnyXXXnetXPjXF8qifRbaJCjce5n61qrUPJ2rnfGfevopadUeBYgTGppZjsy4BS0fM7ZCTW+ur1SitGBD9hm7urVbmQYlDj30EEtvsf6vELU+SEJsyQ8HdYRMLwJhck4v3tNSW39/otlANqOJDySpOlDuNJzqlWVVlrPGENW/+c1vbLQK0h6c0Fwj4zMBBQjDNSbWmR6YSQVWzQoOfBcG+THRFWkUTL+H0MeUY8yFTIAC6dHeDeSfmeant4mpC4khmKQHHnig/PVb3irHH3+8BScgu9LGhIh8Sjmim5iZBEQIhPztJz9t17vJ6aam7dR/Pcq2lN2v+XBWnj4T9ZJUTIChR32A+Oc+8pFr5TRNYWHctKTA7HND5iEFQSAIrSCw79mV0ojRNFgTKGB6t4cffth8UM8++6wNU4S24340185YYxqW9SX+La5HKIslTYhsQ35el2k2WVg6+zvsfDM/s2VAJJAqxHT00UfLSSedJGeeeaalkLDPCZUiiG4iZOK52D0qU1Lf97/7fbnxxhvNr0e9aGF2HxotHSlPbTjhdWe6jNBq62vl7//+7+XoNx6tUwnWmfZoGqrOCEV5yZDpWd8j5rdqqunn9HuLdf4QCELLH5ZFWRINlAZPBJNGCqkwmxRJrqs1L4yRX5uamszUZGYka7DdGgDQ6zgfImGfL0Yc+tmF434OpIT2VVGfpIU4gZHEe8QRR9gky8uXL5f999/fCIXrIFAvmzIpn/wwZFeE9vqm120ezof++JDls3E9GmB3u07MrFJWNUiEfB5OaKWVOvqtdrlqmN1g2tn/vv5LZvI6kdoUd3qdm7SUgWBSp+812Rv/84lAEFo+0SyysiAMSMYFsoCoIBoinTjIITMmNIbYGEhx06ZN0rpth5EggQXI0DUgyqEMBAJh8QYOkVEm2taipQtlH+1mdYB2NyKBd4lGFCFLjzqa+Zm6L8pw4Z51ElL7mCY0qzerofXp/Avr16+Xf/zHf5QXX3zRfIYQI6P/YkIzbHlahhNa7wD+R+0epQnAkO2xJxwrH/v4x2XhovlDNMV0GWxzD+l7HX48Pk8egSC0yWNYlCU48ZgJpY0XovAGSWNGOOYLpEX3JM5r2txsUVISYllIBYHcIAzOQyAQCIyFWaxm6VDgzKqEaVk3W0cHUXENDbKDCLx+vxfOYZ8TI5+5H+2PbjISoXEA/uvu6JEnn3xSGGa7TXtRcG/ckz93UkLyfzihaX8GM7erdE4H6iMt5Pzzz5drP/Jh0zDT90oJlMmS/nFIlx/b+UMgCC1/WBZtScMbebqBjtRQiWAiNHbEz6eh070KqVCSQmjktmjOWk5Sm6Zx6QHXbEYiCz+Wu36EDe7BgwBELMnyb2/pML/gP/3TPxnhDmQGkqhuNqji53txTmyZEk0RITig0d4eosXap5OO7B/56EflfO3IT08Fnj1NtJRh95DSJr3cWOcPgUF7In9lRkkzHAEnIn+MkQjDGytk5KSTO1+/VfjAyzXtgYV+lmTWs2bEChY+V+owPUQTvQuRX+9rJ4C0ZuP35iTp5461tmeAKJ0s1Sqta6y1kUTQrghy8ExoarsjaJwWcdWcvRI1ZbuV3H70wx9af1OPxDr5enkj4ejHYp0fBILQ8oNjUZWSJhB/MBqjLyMd5zxIxtaaeuF/RiBOJMPXfPtYsvtz1+guL4vyEK/bidQ/sx6vQKC9OhYcS4d2v7r22ms1p+xQaZzdaGPJeXn0YLBeDL7D10pgfd2kdiT5d6yryqvMf/j1G26QLZu3SreO+EF2Sr/ms5Fnx3Zu8XJinXcEgtDyDunMLzBNEq4JpdfpJ0Q7c4Lz68Yim+Fk5eX5dXz2bS/Tz2Ht95Let6vt0eqCHDEV8eFdc801FjklVWQsqdQcOXLveHbOxy9oAQU1pwky/OQnP5Ed5O2pCWvYpDk34fyxqojjE0QgCG2CwO0tl6WJxbfTz+5klt5Hz4PRFjJlRz2eLmyE7ZHuY4TTbNcQQnQNUY8k/UTpE6omcU25LFu+TD792b+1Mc4s7UMDC5iOmLgQl3W50nPpXcE4a4yEy7O7uU09etRG/r31Z7+Qe+9eJa+9/JoSc/bOUNSU4EwbRWNjCck7AkFoeYc0CtzTEbAuVko01vUrSzg4+UkP+c8f+lDO4U8KCURl0U+lYCZt3h2B6H6o/rS1a9fqKCLtuUt25SvMnRAbk0YgCG3SEEYBwxFgtNzJLMPLy/dn08AgMr79uk70xYzsu3SxnHveOTZXKSkkHd068oj6x+gtQZJsablGaft3JjWioemIKEMWNW9rlu985zvy2muvSW9nkqqiFYVMMQJBaFMMcBS/5yHgZuhw/xo+tXnz5sl//i//xXojMDBld5+OraYRWZJt0bw8yjraU6HREQWFzL7yla/YtvXGgjzD1BwNukkfC0KbNIRRwExDYDiRQXBOcjzLgoXz5MPXXaMa21IbbRdzlLHd0gEQziMvzXPT+OyaGr43fG47tu+QDa9tkO9///saOFBfHMOdZ3P0OH+4uF9x+P74vPsIBKHtPlZxZpEiAMGhfbGG2OjxcNBBB8kV/+k/EW614ABRTO96NRYMaHpMhccwTdu3bzdCW7VqlfWYSPWXH6uYOD4BBILQJgBaXDIGAviKJrOMUfxkD0NeJtloK1FX61iua9vWqCY+tAsuuEDe8573WJAAooOoPKo52j2gtTFFIKYn11VVVMk3bviGdehvbx0MEoxWRhybGAJBaBPDLa4qAgSYk9QFp78LmhhExNyk73zXu2z6PgiOAEG3TiozljBHQ28f46cl3bowQZml6l/+5V8SLW2sAuL4hBEIQpswdHHhLhGAGyaz7LLg/B5gJvURo7E6DzH9NUs1x7a6rkI+/umPyYIlOoijfq6qr9Rp/rQDvE4j0KOTsTA2Wn+vTsGnPQdKMzrSbkmlRkOznfd1H34zTFlM1s2bN9sIH93qX6NTBQm5kN3uaH35ffLiLS0IrXjfbTzZBBFgToWEkZXDtCcAkc+/+Zu/kdk6IghmJ9obJEWeGscZGbeyotJ8bDZzFkm3eo4NK65aIIQFcTHyyHPPPSf/9r3v2fWUhRZHeSH5QSDmFMgPjlFKESHA7FMZHXGD3gBomtVVyRBHlZXV8vhjj9mYaRBRRiOXFkhgzgR1GuIzS/p3qrZmRKV7CTRohBTywgyF2NZv3GDdrfZZtNiGT3JCw+xNm75FBOm0PUpoaNMGdVQ00xCAgFwbY96Ad77jHXLW2WcbcWEuQlpIv5IWnb2YE4ERRNhGMCsRymBBm4Pg0NToSfCKzmTfpfOjosGxP2TyCAShTR7DKKHIEFBD0PplYkqiUUFGkA7a14d1ZA4mZmGSFPZZJFMtVJQ5iK29syPR7BQT/HD8cR5CUi6aGvlpTa83yde//nXZum2bjciBZgapBbEZVBP+F4Q2YejiwmJFgK5Q3iMAAoJk3Ne1UIfcvkaTbhkinB4EOPvdF2YTrJi2lRAYROhanI/US1mczxwNzMvw7f/zf2zMOMeSa0ImjkAQ2sSxiyuLGAGc/EiZzvkJGRkh6VwFaFv7L18uV1xxhQULKquTbk4QUUmF+sp09NqBMj2vNDEjbX+W2OhJgF8OTY+lpalFfnPHXfLbu+7WmbW2Jv1Bw/Kc1LcqCG1S8MXFxYgA5l+f+sMQtDV8XxCQaWs6o9TcOXPkbO3Efuqpp9rkLXRyp+8mWp0TGGvXztJrP07ZbNOt6stf/rJs2rhR2nQmqZDJIRCENjn84uoiRaA8O/kx5JYW064YVlwJ7r1Xv89mpSLpFlJjdNuMTqiAFucmK6TlPjTKMT8Z46Jlc3rx0XW1d8mXvvgl2bx+k81zEH60NOLj2w5CGx9ecXYgIH29GalSU5MZqz7+qU/Y3JxoWmhwpsWpnwwig5ggNhYnKbQ1I7XsMc6jZ0Jzc7P1+YT8/LhfA+S+L+AfHYEgtNHxiaOBwE4IlKufDJO0XmdOb2D4bp2+btacRh1IIyM9GXoBJEQGWUFgLGh2CITFthGeamo+QkdLc4us+t0quevOu+x6J7a0drfTjcSOnRAIQtsJktgRCIyOAIQFKaGpzZrVKIcffrhc8e53mybmBOR+M7QztDbXzNwU5Tz2saYsyuTzLbfcYhobhJcWPg/flz4e2wkCQWjxTQgExokAxILvy0a+1RY0b/4cufSv3yJvu+wymzDZtTEvloABhIX4tWxDYHyG1DiOL23Ta5tsVnf2czxkfAgEYuPDK84OBAwBSMsz/yEfEmxJ5TjssMOMiHp7BjudQ0zuR+NcFtfKIDM/RopIV3eXpnBssTQRSI5z0+LEmN4X24MIBKENYhFbgcBuIwDRQEasceqTYLtw0Xy55toP2WQrNbU1VhbEhcnJeZARS2l/qVSU6FR4A7p/QJugzvPJdplGViE1JH2+7dB/fr1/jvXOCASh7YxJ7AkEdgsBNC9IDU2NrlBEPRnp9vLLL7fO5xAZxxEnP4iq1xJ1kw7s/drB3TrBZ89R49MGl3Sz1TUy1lwbZqjBuct/QWi7hCYO7K0IKG1o9tngMhoOEAxEw4Jgel562Vvl/AtWqsY2T7p7NFm2JCOVVRoY0B4EXd3tUlrZL9397dKV0dFrK5TYqnQ8tZJuKasekPmLZtss7t5VClJEvHwnONsZ/3ZCIIkl77Q7dgQCgcBEEehXDeztb3+79dfs6Oiw0TWcoBhDDe3LSRDNzQIMqoFhtl555ZW5YxOtf2++LjS0vfntx7NPDQKqrS3Zd1+5XIME9Pus0qTbtvZ2HWMNg1K7SeFzI/Kp2+zr09SOuTqI5JtOPlkuvuSSqbmnvaTUILS95EXHY04fAqUEAXQY7uVKZp/4xCfM77VAR+nw3gRoZZimmKtobMw3wLnXXHONNDQ05DQ0NzPTdz7SvvTxvX27RG3yJEFmb0cinj8QyBMC2p1TSrKqQmvLDulUU/JHOqDj7+6+W9auWyeNSlpoZaRrLFq0yCZiueiiiyywQO8DJm9x4vJ1nm6t6IsJQiv6VxwPOO0IZFWETF+/lJUzVHe/pXYwScrWrVvlpbVrLZWDMdX2339/09zmzZ2bI0FG+HAJQnMkdm8dhLZ7OMVZgcC4EMhoP80ynUugq6tHCSsZW62np8+0MnoOkOqBuVmmkxGXJAFSKx97Kf15XJXGyZrXFyZnfA0CgSlBoE81s3LV0NypA1Gp+8xE3WcmfGbbCTDZG/8nikAQ2kSRi+sCgV0gMGgwjnxC2qQc6Qwy4EImhkBEOSeGW1wVCAQCeyACkVi7B76UuKWZjcBY+tXwUXBn9tPuWXcfGtqe9T7ibgKBQGASCAShTQK8uDQQCAT2LASC0Pas9xF3EwgEApNAIHxokwAvLg0ERkRgrDDniBeldo7lhEudGptDEQgNbSge8SkQCARmMAKhoc3glxe3vociEBpWwV5MaGgFgz4qDgQCgXwjEISWb0SjvEAgECgYAkFoBYM+Kg4EAoF8IxCElm9Eo7xAIBAoGAJBaAWDPioOBAKBfCMQhJZvRKO8QCAQKBgCQWgFgz4qDgQCgXwjEISWb0SjvEAgECgYAkFoBYM+Kg4EAoF8IxCElm9Eo7xAIBAoGAJBaAWDPioOBAKBfCMQhJZvRKO8QCAQKBgCQWgFgz4qDgQCgXwjEISWb0SjvEAgECgYAkFoBYM+Kg4EAoF8IxCElm9Eo7xAIBAoGAJBaAWDPioOBAKBfCMQhJZvRKO8QCAQKBgCQWgFgz4qDgQCgXwjEISWb0SjvEAgECgYAkFoBYM+Kg4EAoF8IxCElm9Eo7xAIBAoGAJBaAWDPioOBAKBfCMQhJZvRKO8QCAQKBgCQWgFgz4qDgQCgXwjEISWb0SjvEAgECgYAkFoBYM+Kg4EAoF8IxCElm9Eo7xAIBAoGAJBaAWDPioOBAKBfCMQhJZvRKO8QCAQKBgCQWgFgz4qDgQCgXwjEISWb0SjvEAgECgYAkFoBYM+Kg4EAoF8IxCElm9Eo7xAIBAoGAJBaAWDPioOBAKBfCMQhJZvRKO8QCAQKBgC/z/2/dXzEOErJAAAAABJRU5ErkJggg==;" vertex="1" parent="1">
          <mxGeometry x="550" y="220" width="71.08" height="60" as="geometry" />
        </mxCell>
        <mxCell id="0IcsC1O1_N2VIoIIlEwo-12" value="Deep packet inspection" style="whiteSpace=wrap;html=1;rounded=1;arcSize=50;align=center;verticalAlign=middle;strokeWidth=1;autosize=1;spacing=4;treeFolding=1;treeMoving=1;newEdgeStyle={&quot;edgeStyle&quot;:&quot;entityRelationEdgeStyle&quot;,&quot;startArrow&quot;:&quot;none&quot;,&quot;endArrow&quot;:&quot;none&quot;,&quot;segment&quot;:10,&quot;curved&quot;:1,&quot;sourcePerimeterSpacing&quot;:0,&quot;targetPerimeterSpacing&quot;:0};" vertex="1" parent="1">
          <mxGeometry x="550" y="150" width="170" height="30" as="geometry" />
        </mxCell>
        <mxCell id="0IcsC1O1_N2VIoIIlEwo-13" value="" style="edgeStyle=entityRelationEdgeStyle;startArrow=none;endArrow=none;segment=10;curved=1;sourcePerimeterSpacing=0;targetPerimeterSpacing=0;rounded=0;" edge="1" target="0IcsC1O1_N2VIoIIlEwo-12" parent="1">
          <mxGeometry relative="1" as="geometry">
            <mxPoint x="570" y="230" as="sourcePoint" />
          </mxGeometry>
        </mxCell>
        <mxCell id="0IcsC1O1_N2VIoIIlEwo-15" value="Traditional packet analytics" style="whiteSpace=wrap;html=1;rounded=1;arcSize=50;align=center;verticalAlign=middle;strokeWidth=1;autosize=1;spacing=4;treeFolding=1;treeMoving=1;newEdgeStyle={&quot;edgeStyle&quot;:&quot;entityRelationEdgeStyle&quot;,&quot;startArrow&quot;:&quot;none&quot;,&quot;endArrow&quot;:&quot;none&quot;,&quot;segment&quot;:10,&quot;curved&quot;:1,&quot;sourcePerimeterSpacing&quot;:0,&quot;targetPerimeterSpacing&quot;:0};" vertex="1" parent="1">
          <mxGeometry x="40" y="270" width="190" height="30" as="geometry" />
        </mxCell>
        <mxCell id="0IcsC1O1_N2VIoIIlEwo-16" value="" style="edgeStyle=entityRelationEdgeStyle;startArrow=none;endArrow=none;segment=10;curved=1;sourcePerimeterSpacing=0;targetPerimeterSpacing=0;rounded=0;" edge="1" target="0IcsC1O1_N2VIoIIlEwo-15" parent="1">
          <mxGeometry relative="1" as="geometry">
            <mxPoint x="151.08000000000004" y="200" as="sourcePoint" />
          </mxGeometry>
        </mxCell>
        <mxCell id="0IcsC1O1_N2VIoIIlEwo-17" value="" style="shape=curlyBracket;whiteSpace=wrap;html=1;rounded=1;labelPosition=left;verticalLabelPosition=middle;align=right;verticalAlign=middle;" vertex="1" parent="1">
          <mxGeometry x="260" y="130" width="20" height="120" as="geometry" />
        </mxCell>
        <mxCell id="0IcsC1O1_N2VIoIIlEwo-19" value="" style="shape=curlyBracket;whiteSpace=wrap;html=1;rounded=1;flipH=1;labelPosition=right;verticalLabelPosition=middle;align=left;verticalAlign=middle;" vertex="1" parent="1">
          <mxGeometry x="510" y="120" width="20" height="220" as="geometry" />
        </mxCell>
      </root>
    </mxGraphModel>
  </diagram>
</mxfile>
